<mxfile host="app.diagrams.net" agent="Mozilla/5.0 (X11; Linux x86_64) AppleWebKit/537.36 (KHTML, like Gecko) Chrome/136.0.0.0 Safari/537.36" version="27.1.1" pages="5">
  <diagram name="Estructura backend" id="2EwQ13ZnxfNRJ1NMO_2o">
    <mxGraphModel dx="1385" dy="750" grid="1" gridSize="10" guides="1" tooltips="1" connect="1" arrows="1" fold="1" page="1" pageScale="1" pageWidth="1100" pageHeight="850" math="0" shadow="0">
      <root>
        <mxCell id="0" />
        <mxCell id="1" parent="0" />
        <mxCell id="FWhbziOUTGveQ3GAkrlC-30" style="edgeStyle=orthogonalEdgeStyle;rounded=0;orthogonalLoop=1;jettySize=auto;html=1;exitX=0.5;exitY=1;exitDx=0;exitDy=0;entryX=0.5;entryY=0;entryDx=0;entryDy=0;" parent="1" source="FWhbziOUTGveQ3GAkrlC-2" target="FWhbziOUTGveQ3GAkrlC-25" edge="1">
          <mxGeometry relative="1" as="geometry" />
        </mxCell>
        <mxCell id="FWhbziOUTGveQ3GAkrlC-2" value="main" style="rounded=0;whiteSpace=wrap;html=1;fillColor=#fff2cc;strokeColor=#d6b656;" parent="1" vertex="1">
          <mxGeometry x="40" y="220" width="120" height="60" as="geometry" />
        </mxCell>
        <mxCell id="FWhbziOUTGveQ3GAkrlC-24" style="edgeStyle=orthogonalEdgeStyle;rounded=0;orthogonalLoop=1;jettySize=auto;html=1;exitX=1;exitY=0.5;exitDx=0;exitDy=0;" parent="1" source="FWhbziOUTGveQ3GAkrlC-4" target="FWhbziOUTGveQ3GAkrlC-23" edge="1">
          <mxGeometry relative="1" as="geometry" />
        </mxCell>
        <mxCell id="msEt9y2-FaPu1Hv2gZgh-2" style="edgeStyle=orthogonalEdgeStyle;rounded=0;orthogonalLoop=1;jettySize=auto;html=1;exitX=0.5;exitY=1;exitDx=0;exitDy=0;entryX=0.5;entryY=0;entryDx=0;entryDy=0;" parent="1" source="FWhbziOUTGveQ3GAkrlC-4" target="msEt9y2-FaPu1Hv2gZgh-1" edge="1">
          <mxGeometry relative="1" as="geometry" />
        </mxCell>
        <mxCell id="FWhbziOUTGveQ3GAkrlC-4" value="connector" style="rounded=0;whiteSpace=wrap;html=1;fillColor=#fff2cc;strokeColor=#d6b656;" parent="1" vertex="1">
          <mxGeometry x="240" y="220" width="120" height="60" as="geometry" />
        </mxCell>
        <mxCell id="msEt9y2-FaPu1Hv2gZgh-6" style="edgeStyle=orthogonalEdgeStyle;rounded=0;orthogonalLoop=1;jettySize=auto;html=1;exitX=0.5;exitY=1;exitDx=0;exitDy=0;entryX=0.5;entryY=0;entryDx=0;entryDy=0;" parent="1" source="FWhbziOUTGveQ3GAkrlC-5" target="msEt9y2-FaPu1Hv2gZgh-5" edge="1">
          <mxGeometry relative="1" as="geometry" />
        </mxCell>
        <mxCell id="FWhbziOUTGveQ3GAkrlC-5" value="repository" style="rounded=0;whiteSpace=wrap;html=1;fillColor=#fff2cc;strokeColor=#d6b656;" parent="1" vertex="1">
          <mxGeometry x="760" y="220" width="120" height="60" as="geometry" />
        </mxCell>
        <mxCell id="FWhbziOUTGveQ3GAkrlC-14" style="edgeStyle=orthogonalEdgeStyle;rounded=0;orthogonalLoop=1;jettySize=auto;html=1;exitX=0;exitY=0.5;exitDx=0;exitDy=0;entryX=0.5;entryY=0;entryDx=0;entryDy=0;" parent="1" source="FWhbziOUTGveQ3GAkrlC-12" target="FWhbziOUTGveQ3GAkrlC-2" edge="1">
          <mxGeometry relative="1" as="geometry" />
        </mxCell>
        <mxCell id="FWhbziOUTGveQ3GAkrlC-18" style="edgeStyle=orthogonalEdgeStyle;rounded=0;orthogonalLoop=1;jettySize=auto;html=1;exitX=1;exitY=0.5;exitDx=0;exitDy=0;entryX=0.5;entryY=0;entryDx=0;entryDy=0;" parent="1" source="FWhbziOUTGveQ3GAkrlC-12" target="FWhbziOUTGveQ3GAkrlC-5" edge="1">
          <mxGeometry relative="1" as="geometry" />
        </mxCell>
        <mxCell id="FWhbziOUTGveQ3GAkrlC-28" style="edgeStyle=orthogonalEdgeStyle;rounded=0;orthogonalLoop=1;jettySize=auto;html=1;exitX=0.75;exitY=1;exitDx=0;exitDy=0;" parent="1" source="FWhbziOUTGveQ3GAkrlC-12" target="FWhbziOUTGveQ3GAkrlC-3" edge="1">
          <mxGeometry relative="1" as="geometry" />
        </mxCell>
        <mxCell id="FWhbziOUTGveQ3GAkrlC-29" style="edgeStyle=orthogonalEdgeStyle;rounded=0;orthogonalLoop=1;jettySize=auto;html=1;exitX=0.25;exitY=1;exitDx=0;exitDy=0;" parent="1" source="FWhbziOUTGveQ3GAkrlC-12" target="FWhbziOUTGveQ3GAkrlC-4" edge="1">
          <mxGeometry relative="1" as="geometry" />
        </mxCell>
        <mxCell id="FWhbziOUTGveQ3GAkrlC-12" value="Backend" style="rounded=0;whiteSpace=wrap;html=1;fillColor=#d5e8d4;strokeColor=#82b366;" parent="1" vertex="1">
          <mxGeometry x="400" y="120" width="120" height="60" as="geometry" />
        </mxCell>
        <mxCell id="msEt9y2-FaPu1Hv2gZgh-8" style="edgeStyle=orthogonalEdgeStyle;rounded=0;orthogonalLoop=1;jettySize=auto;html=1;exitX=0.5;exitY=1;exitDx=0;exitDy=0;" parent="1" source="FWhbziOUTGveQ3GAkrlC-23" target="msEt9y2-FaPu1Hv2gZgh-7" edge="1">
          <mxGeometry relative="1" as="geometry" />
        </mxCell>
        <mxCell id="FWhbziOUTGveQ3GAkrlC-23" value="routes" style="rounded=0;whiteSpace=wrap;html=1;fillColor=#fff2cc;strokeColor=#d6b656;" parent="1" vertex="1">
          <mxGeometry x="400" y="350" width="120" height="60" as="geometry" />
        </mxCell>
        <mxCell id="FWhbziOUTGveQ3GAkrlC-25" value="- Código de ejecución principal del servidor&lt;div&gt;- Lo principal que hace es instanciar el conector y el repositorio, y empezar la ejecución&lt;/div&gt;" style="rounded=0;whiteSpace=wrap;html=1;" parent="1" vertex="1">
          <mxGeometry x="20" y="320" width="160" height="120" as="geometry" />
        </mxCell>
        <mxCell id="msEt9y2-FaPu1Hv2gZgh-4" style="edgeStyle=orthogonalEdgeStyle;rounded=0;orthogonalLoop=1;jettySize=auto;html=1;exitX=0.5;exitY=1;exitDx=0;exitDy=0;entryX=0.5;entryY=0;entryDx=0;entryDy=0;" parent="1" source="FWhbziOUTGveQ3GAkrlC-3" target="msEt9y2-FaPu1Hv2gZgh-3" edge="1">
          <mxGeometry relative="1" as="geometry" />
        </mxCell>
        <mxCell id="FWhbziOUTGveQ3GAkrlC-3" value="model" style="rounded=0;whiteSpace=wrap;html=1;fillColor=#fff2cc;strokeColor=#d6b656;" parent="1" vertex="1">
          <mxGeometry x="560" y="220" width="120" height="60" as="geometry" />
        </mxCell>
        <mxCell id="msEt9y2-FaPu1Hv2gZgh-1" value="- Código de API REST&lt;div&gt;- Comunica con el cliente y realiza las operaciones&lt;/div&gt;&lt;div&gt;- El módulo principal contiene el setup del conector, y la definición de las URIs y los métodos de las rutas&lt;/div&gt;" style="rounded=0;whiteSpace=wrap;html=1;" parent="1" vertex="1">
          <mxGeometry x="220" y="320" width="160" height="120" as="geometry" />
        </mxCell>
        <mxCell id="msEt9y2-FaPu1Hv2gZgh-3" value="- Definiciones de todos los objetos / tipos de datos usados tanto en el conector como en el repositorio" style="rounded=0;whiteSpace=wrap;html=1;" parent="1" vertex="1">
          <mxGeometry x="540" y="320" width="160" height="120" as="geometry" />
        </mxCell>
        <mxCell id="msEt9y2-FaPu1Hv2gZgh-5" value="- Código que gestiona el almacenamiento de la información&lt;div&gt;- En la versión actual del código, se almacena todo en la memoria del proceso, pero podría ser pasado a una BBDD en el futuro&lt;/div&gt;" style="rounded=0;whiteSpace=wrap;html=1;" parent="1" vertex="1">
          <mxGeometry x="740" y="320" width="160" height="120" as="geometry" />
        </mxCell>
        <mxCell id="msEt9y2-FaPu1Hv2gZgh-7" value="- Funciones de todas y cada una de las rutas de la API&lt;div&gt;- Incluye además un par de definiciones comunes&lt;/div&gt;" style="rounded=0;whiteSpace=wrap;html=1;" parent="1" vertex="1">
          <mxGeometry x="380" y="480" width="160" height="120" as="geometry" />
        </mxCell>
      </root>
    </mxGraphModel>
  </diagram>
  <diagram id="1vTE9bENRbcTGceigef-" name="Estructura frontend">
    <mxGraphModel dx="2518" dy="1364" grid="1" gridSize="10" guides="1" tooltips="1" connect="1" arrows="1" fold="1" page="1" pageScale="1" pageWidth="1100" pageHeight="850" math="0" shadow="0">
      <root>
        <mxCell id="0" />
        <mxCell id="1" parent="0" />
        <mxCell id="GuH95YkkusHpneFwOxtb-2" style="edgeStyle=orthogonalEdgeStyle;rounded=0;orthogonalLoop=1;jettySize=auto;html=1;exitX=0.5;exitY=1;exitDx=0;exitDy=0;entryX=0.5;entryY=0;entryDx=0;entryDy=0;" edge="1" parent="1" source="ubT8_ZJKfGK5P904nKCi-1" target="ubT8_ZJKfGK5P904nKCi-2">
          <mxGeometry relative="1" as="geometry" />
        </mxCell>
        <mxCell id="GuH95YkkusHpneFwOxtb-3" style="edgeStyle=orthogonalEdgeStyle;rounded=0;orthogonalLoop=1;jettySize=auto;html=1;exitX=0.5;exitY=1;exitDx=0;exitDy=0;" edge="1" parent="1" source="ubT8_ZJKfGK5P904nKCi-1" target="ubT8_ZJKfGK5P904nKCi-3">
          <mxGeometry relative="1" as="geometry" />
        </mxCell>
        <mxCell id="GuH95YkkusHpneFwOxtb-4" style="edgeStyle=orthogonalEdgeStyle;rounded=0;orthogonalLoop=1;jettySize=auto;html=1;exitX=0.5;exitY=1;exitDx=0;exitDy=0;" edge="1" parent="1" source="ubT8_ZJKfGK5P904nKCi-1" target="ubT8_ZJKfGK5P904nKCi-4">
          <mxGeometry relative="1" as="geometry" />
        </mxCell>
        <mxCell id="GuH95YkkusHpneFwOxtb-5" style="edgeStyle=orthogonalEdgeStyle;rounded=0;orthogonalLoop=1;jettySize=auto;html=1;exitX=0.5;exitY=1;exitDx=0;exitDy=0;" edge="1" parent="1" source="ubT8_ZJKfGK5P904nKCi-1" target="ubT8_ZJKfGK5P904nKCi-5">
          <mxGeometry relative="1" as="geometry" />
        </mxCell>
        <mxCell id="ubT8_ZJKfGK5P904nKCi-1" value="Frontend" style="rounded=0;whiteSpace=wrap;html=1;fillColor=#d5e8d4;strokeColor=#82b366;" vertex="1" parent="1">
          <mxGeometry x="550" y="100" width="120" height="60" as="geometry" />
        </mxCell>
        <mxCell id="GuH95YkkusHpneFwOxtb-6" style="edgeStyle=orthogonalEdgeStyle;rounded=0;orthogonalLoop=1;jettySize=auto;html=1;exitX=0.5;exitY=1;exitDx=0;exitDy=0;" edge="1" parent="1" source="ubT8_ZJKfGK5P904nKCi-2" target="GuH95YkkusHpneFwOxtb-1">
          <mxGeometry relative="1" as="geometry" />
        </mxCell>
        <mxCell id="ubT8_ZJKfGK5P904nKCi-2" value="main" style="rounded=0;whiteSpace=wrap;html=1;fillColor=#fff2cc;strokeColor=#d6b656;" vertex="1" parent="1">
          <mxGeometry x="120" y="240" width="120" height="60" as="geometry" />
        </mxCell>
        <mxCell id="GuH95YkkusHpneFwOxtb-8" value="" style="edgeStyle=orthogonalEdgeStyle;rounded=0;orthogonalLoop=1;jettySize=auto;html=1;" edge="1" parent="1" source="ubT8_ZJKfGK5P904nKCi-3" target="GuH95YkkusHpneFwOxtb-7">
          <mxGeometry relative="1" as="geometry" />
        </mxCell>
        <mxCell id="ubT8_ZJKfGK5P904nKCi-3" value="api" style="rounded=0;whiteSpace=wrap;html=1;fillColor=#fff2cc;strokeColor=#d6b656;" vertex="1" parent="1">
          <mxGeometry x="320" y="240" width="120" height="60" as="geometry" />
        </mxCell>
        <mxCell id="GuH95YkkusHpneFwOxtb-16" style="edgeStyle=orthogonalEdgeStyle;rounded=0;orthogonalLoop=1;jettySize=auto;html=1;exitX=0.5;exitY=1;exitDx=0;exitDy=0;entryX=0.5;entryY=0;entryDx=0;entryDy=0;" edge="1" parent="1" source="ubT8_ZJKfGK5P904nKCi-4" target="GuH95YkkusHpneFwOxtb-15">
          <mxGeometry relative="1" as="geometry" />
        </mxCell>
        <mxCell id="ubT8_ZJKfGK5P904nKCi-4" value="utils" style="rounded=0;whiteSpace=wrap;html=1;fillColor=#fff2cc;strokeColor=#d6b656;" vertex="1" parent="1">
          <mxGeometry x="520" y="240" width="120" height="60" as="geometry" />
        </mxCell>
        <mxCell id="GuH95YkkusHpneFwOxtb-9" style="edgeStyle=orthogonalEdgeStyle;rounded=0;orthogonalLoop=1;jettySize=auto;html=1;exitX=0.5;exitY=1;exitDx=0;exitDy=0;" edge="1" parent="1" source="ubT8_ZJKfGK5P904nKCi-5" target="ubT8_ZJKfGK5P904nKCi-6">
          <mxGeometry relative="1" as="geometry" />
        </mxCell>
        <mxCell id="GuH95YkkusHpneFwOxtb-10" style="edgeStyle=orthogonalEdgeStyle;rounded=0;orthogonalLoop=1;jettySize=auto;html=1;exitX=0.5;exitY=1;exitDx=0;exitDy=0;" edge="1" parent="1" source="ubT8_ZJKfGK5P904nKCi-5" target="ubT8_ZJKfGK5P904nKCi-8">
          <mxGeometry relative="1" as="geometry" />
        </mxCell>
        <mxCell id="GuH95YkkusHpneFwOxtb-11" style="edgeStyle=orthogonalEdgeStyle;rounded=0;orthogonalLoop=1;jettySize=auto;html=1;exitX=0.5;exitY=1;exitDx=0;exitDy=0;" edge="1" parent="1" source="ubT8_ZJKfGK5P904nKCi-5" target="ubT8_ZJKfGK5P904nKCi-7">
          <mxGeometry relative="1" as="geometry" />
        </mxCell>
        <mxCell id="GuH95YkkusHpneFwOxtb-12" style="edgeStyle=orthogonalEdgeStyle;rounded=0;orthogonalLoop=1;jettySize=auto;html=1;exitX=0.5;exitY=1;exitDx=0;exitDy=0;" edge="1" parent="1" source="ubT8_ZJKfGK5P904nKCi-5" target="ubT8_ZJKfGK5P904nKCi-12">
          <mxGeometry relative="1" as="geometry" />
        </mxCell>
        <mxCell id="GuH95YkkusHpneFwOxtb-22" style="edgeStyle=orthogonalEdgeStyle;rounded=0;orthogonalLoop=1;jettySize=auto;html=1;exitX=1;exitY=0.5;exitDx=0;exitDy=0;" edge="1" parent="1" source="ubT8_ZJKfGK5P904nKCi-5" target="GuH95YkkusHpneFwOxtb-21">
          <mxGeometry relative="1" as="geometry" />
        </mxCell>
        <mxCell id="ubT8_ZJKfGK5P904nKCi-5" value="page" style="rounded=0;whiteSpace=wrap;html=1;fillColor=#dae8fc;strokeColor=#6c8ebf;" vertex="1" parent="1">
          <mxGeometry x="1000" y="240" width="120" height="60" as="geometry" />
        </mxCell>
        <mxCell id="GuH95YkkusHpneFwOxtb-23" style="edgeStyle=orthogonalEdgeStyle;rounded=0;orthogonalLoop=1;jettySize=auto;html=1;exitX=0.5;exitY=1;exitDx=0;exitDy=0;" edge="1" parent="1" source="ubT8_ZJKfGK5P904nKCi-6" target="GuH95YkkusHpneFwOxtb-17">
          <mxGeometry relative="1" as="geometry" />
        </mxCell>
        <mxCell id="ubT8_ZJKfGK5P904nKCi-6" value="login" style="rounded=0;whiteSpace=wrap;html=1;fillColor=#dae8fc;strokeColor=#6c8ebf;" vertex="1" parent="1">
          <mxGeometry x="700" y="360" width="120" height="60" as="geometry" />
        </mxCell>
        <mxCell id="GuH95YkkusHpneFwOxtb-25" style="edgeStyle=orthogonalEdgeStyle;rounded=0;orthogonalLoop=1;jettySize=auto;html=1;exitX=0.5;exitY=1;exitDx=0;exitDy=0;" edge="1" parent="1" source="ubT8_ZJKfGK5P904nKCi-7" target="GuH95YkkusHpneFwOxtb-18">
          <mxGeometry relative="1" as="geometry" />
        </mxCell>
        <mxCell id="ubT8_ZJKfGK5P904nKCi-7" value="canales" style="rounded=0;whiteSpace=wrap;html=1;fillColor=#dae8fc;strokeColor=#6c8ebf;" vertex="1" parent="1">
          <mxGeometry x="1100" y="360" width="120" height="60" as="geometry" />
        </mxCell>
        <mxCell id="GuH95YkkusHpneFwOxtb-24" style="edgeStyle=orthogonalEdgeStyle;rounded=0;orthogonalLoop=1;jettySize=auto;html=1;exitX=0.5;exitY=1;exitDx=0;exitDy=0;" edge="1" parent="1" source="ubT8_ZJKfGK5P904nKCi-8" target="GuH95YkkusHpneFwOxtb-19">
          <mxGeometry relative="1" as="geometry" />
        </mxCell>
        <mxCell id="ubT8_ZJKfGK5P904nKCi-8" value="proyectos" style="rounded=0;whiteSpace=wrap;html=1;fillColor=#dae8fc;strokeColor=#6c8ebf;" vertex="1" parent="1">
          <mxGeometry x="900" y="360" width="120" height="60" as="geometry" />
        </mxCell>
        <mxCell id="GuH95YkkusHpneFwOxtb-26" style="edgeStyle=orthogonalEdgeStyle;rounded=0;orthogonalLoop=1;jettySize=auto;html=1;exitX=0.5;exitY=1;exitDx=0;exitDy=0;" edge="1" parent="1" source="ubT8_ZJKfGK5P904nKCi-12" target="GuH95YkkusHpneFwOxtb-20">
          <mxGeometry relative="1" as="geometry" />
        </mxCell>
        <mxCell id="ubT8_ZJKfGK5P904nKCi-12" value="datos_canal" style="rounded=0;whiteSpace=wrap;html=1;fillColor=#dae8fc;strokeColor=#6c8ebf;" vertex="1" parent="1">
          <mxGeometry x="1300" y="360" width="120" height="60" as="geometry" />
        </mxCell>
        <mxCell id="GuH95YkkusHpneFwOxtb-1" value="-Ejecución principal del código.&lt;div&gt;- Ejecuta la página login e inmediatamente después, comienza la ejecución del proyecto&lt;/div&gt;" style="rounded=0;whiteSpace=wrap;html=1;" vertex="1" parent="1">
          <mxGeometry x="100" y="330" width="160" height="120" as="geometry" />
        </mxCell>
        <mxCell id="GuH95YkkusHpneFwOxtb-7" value="- Wrapper sencillo alrededor de las peticiones a la API&lt;div&gt;- Simplifica la ya sencilla requests de Python para reducir complejidad en el código de la interfaz&lt;/div&gt;" style="rounded=0;whiteSpace=wrap;html=1;" vertex="1" parent="1">
          <mxGeometry x="300" y="330" width="160" height="120" as="geometry" />
        </mxCell>
        <mxCell id="GuH95YkkusHpneFwOxtb-15" value="- Contiene algunos formatos de popups, así como otros añadidos que pueden ser útiles para la interfaz" style="rounded=0;whiteSpace=wrap;html=1;" vertex="1" parent="1">
          <mxGeometry x="500" y="330" width="160" height="120" as="geometry" />
        </mxCell>
        <mxCell id="GuH95YkkusHpneFwOxtb-17" value="- Página sencilla de login (pide el ID de usuario a autenticar)" style="rounded=0;whiteSpace=wrap;html=1;" vertex="1" parent="1">
          <mxGeometry x="680" y="490" width="160" height="120" as="geometry" />
        </mxCell>
        <mxCell id="GuH95YkkusHpneFwOxtb-18" value="- Página principal de la aplicación&lt;div&gt;- Maneja los canales y los miembros de un proyecto en específico&lt;/div&gt;" style="rounded=0;whiteSpace=wrap;html=1;" vertex="1" parent="1">
          <mxGeometry x="1080" y="490" width="160" height="120" as="geometry" />
        </mxCell>
        <mxCell id="GuH95YkkusHpneFwOxtb-19" value="- Listado de proyectos disponibles al usuario&lt;div&gt;- Permite crear y salir de proyectos&lt;/div&gt;" style="rounded=0;whiteSpace=wrap;html=1;" vertex="1" parent="1">
          <mxGeometry x="880" y="490" width="160" height="120" as="geometry" />
        </mxCell>
        <mxCell id="GuH95YkkusHpneFwOxtb-20" value="- Popups relacionados con los contenidos de la página canales&lt;div&gt;- crear_canal pide datos relacionados con la creación de un canal&lt;/div&gt;&lt;div&gt;- añadir_miembro pide datos de un miembro a añadir&lt;/div&gt;" style="rounded=0;whiteSpace=wrap;html=1;" vertex="1" parent="1">
          <mxGeometry x="1280" y="490" width="160" height="130" as="geometry" />
        </mxCell>
        <mxCell id="GuH95YkkusHpneFwOxtb-21" value="Definiciones de las distintas páginas del frontend" style="rounded=0;whiteSpace=wrap;html=1;" vertex="1" parent="1">
          <mxGeometry x="1160" y="240" width="160" height="60" as="geometry" />
        </mxCell>
      </root>
    </mxGraphModel>
  </diagram>
  <diagram id="dXHzTfhh8F6ToxlXlzs_" name="Relaciones entre los datos">
    <mxGraphModel dx="2729" dy="882" grid="1" gridSize="10" guides="1" tooltips="1" connect="1" arrows="1" fold="1" page="1" pageScale="1" pageWidth="1100" pageHeight="850" math="0" shadow="0">
      <root>
        <mxCell id="0" />
        <mxCell id="1" parent="0" />
        <mxCell id="PGtcUral3JdQXKYRU7I9-3" value="Proyecto" style="swimlane;fontStyle=0;childLayout=stackLayout;horizontal=1;startSize=30;horizontalStack=0;resizeParent=1;resizeParentMax=0;resizeLast=0;collapsible=1;marginBottom=0;whiteSpace=wrap;html=1;fillColor=#dae8fc;strokeColor=#6c8ebf;" parent="1" vertex="1">
          <mxGeometry x="-580" y="300" width="140" height="120" as="geometry" />
        </mxCell>
        <mxCell id="PGtcUral3JdQXKYRU7I9-4" value="id: Int" style="text;strokeColor=#d6b656;fillColor=#fff2cc;align=left;verticalAlign=middle;spacingLeft=4;spacingRight=4;overflow=hidden;points=[[0,0.5],[1,0.5]];portConstraint=eastwest;rotatable=0;whiteSpace=wrap;html=1;" parent="PGtcUral3JdQXKYRU7I9-3" vertex="1">
          <mxGeometry y="30" width="140" height="30" as="geometry" />
        </mxCell>
        <mxCell id="PGtcUral3JdQXKYRU7I9-5" value="nombre: String" style="text;strokeColor=none;fillColor=none;align=left;verticalAlign=middle;spacingLeft=4;spacingRight=4;overflow=hidden;points=[[0,0.5],[1,0.5]];portConstraint=eastwest;rotatable=0;whiteSpace=wrap;html=1;" parent="PGtcUral3JdQXKYRU7I9-3" vertex="1">
          <mxGeometry y="60" width="140" height="30" as="geometry" />
        </mxCell>
        <mxCell id="PGtcUral3JdQXKYRU7I9-6" value="canales: List[String]" style="text;strokeColor=none;fillColor=none;align=left;verticalAlign=middle;spacingLeft=4;spacingRight=4;overflow=hidden;points=[[0,0.5],[1,0.5]];portConstraint=eastwest;rotatable=0;whiteSpace=wrap;html=1;" parent="PGtcUral3JdQXKYRU7I9-3" vertex="1">
          <mxGeometry y="90" width="140" height="30" as="geometry" />
        </mxCell>
        <mxCell id="PGtcUral3JdQXKYRU7I9-7" value="Canal" style="swimlane;fontStyle=0;childLayout=stackLayout;horizontal=1;startSize=30;horizontalStack=0;resizeParent=1;resizeParentMax=0;resizeLast=0;collapsible=1;marginBottom=0;whiteSpace=wrap;html=1;fillColor=#dae8fc;strokeColor=#6c8ebf;" parent="1" vertex="1">
          <mxGeometry x="-310" y="360" width="140" height="120" as="geometry" />
        </mxCell>
        <mxCell id="PGtcUral3JdQXKYRU7I9-8" value="id: Int" style="text;strokeColor=#d6b656;fillColor=#fff2cc;align=left;verticalAlign=middle;spacingLeft=4;spacingRight=4;overflow=hidden;points=[[0,0.5],[1,0.5]];portConstraint=eastwest;rotatable=0;whiteSpace=wrap;html=1;" parent="PGtcUral3JdQXKYRU7I9-7" vertex="1">
          <mxGeometry y="30" width="140" height="30" as="geometry" />
        </mxCell>
        <mxCell id="PGtcUral3JdQXKYRU7I9-9" value="nombre: String" style="text;strokeColor=none;fillColor=none;align=left;verticalAlign=middle;spacingLeft=4;spacingRight=4;overflow=hidden;points=[[0,0.5],[1,0.5]];portConstraint=eastwest;rotatable=0;whiteSpace=wrap;html=1;" parent="PGtcUral3JdQXKYRU7I9-7" vertex="1">
          <mxGeometry y="60" width="140" height="30" as="geometry" />
        </mxCell>
        <mxCell id="PGtcUral3JdQXKYRU7I9-10" value="tipo: String" style="text;strokeColor=#666666;fillColor=#f5f5f5;align=left;verticalAlign=middle;spacingLeft=4;spacingRight=4;overflow=hidden;points=[[0,0.5],[1,0.5]];portConstraint=eastwest;rotatable=0;whiteSpace=wrap;html=1;fontColor=#333333;" parent="PGtcUral3JdQXKYRU7I9-7" vertex="1">
          <mxGeometry y="90" width="140" height="30" as="geometry" />
        </mxCell>
        <mxCell id="PGtcUral3JdQXKYRU7I9-12" value="Especialización de los canales irá aquí" style="rounded=0;whiteSpace=wrap;html=1;" parent="1" vertex="1">
          <mxGeometry x="-140" y="520" width="120" height="60" as="geometry" />
        </mxCell>
        <mxCell id="PGtcUral3JdQXKYRU7I9-11" style="edgeStyle=orthogonalEdgeStyle;rounded=0;orthogonalLoop=1;jettySize=auto;html=1;exitX=1;exitY=0.5;exitDx=0;exitDy=0;entryX=0.5;entryY=0;entryDx=0;entryDy=0;" parent="1" source="PGtcUral3JdQXKYRU7I9-10" target="PGtcUral3JdQXKYRU7I9-12" edge="1">
          <mxGeometry relative="1" as="geometry">
            <mxPoint x="-60" y="530" as="targetPoint" />
          </mxGeometry>
        </mxCell>
        <mxCell id="PGtcUral3JdQXKYRU7I9-13" style="edgeStyle=orthogonalEdgeStyle;rounded=0;orthogonalLoop=1;jettySize=auto;html=1;exitX=1;exitY=0.5;exitDx=0;exitDy=0;entryX=0;entryY=0.5;entryDx=0;entryDy=0;" parent="1" source="PGtcUral3JdQXKYRU7I9-6" target="PGtcUral3JdQXKYRU7I9-8" edge="1">
          <mxGeometry relative="1" as="geometry" />
        </mxCell>
        <mxCell id="PGtcUral3JdQXKYRU7I9-14" value="1:n" style="edgeLabel;html=1;align=center;verticalAlign=middle;resizable=0;points=[];" parent="PGtcUral3JdQXKYRU7I9-13" vertex="1" connectable="0">
          <mxGeometry x="-0.1077" y="-5" relative="1" as="geometry">
            <mxPoint x="2" y="-5" as="offset" />
          </mxGeometry>
        </mxCell>
        <mxCell id="PGtcUral3JdQXKYRU7I9-15" value="Usuario" style="swimlane;fontStyle=0;childLayout=stackLayout;horizontal=1;startSize=30;horizontalStack=0;resizeParent=1;resizeParentMax=0;resizeLast=0;collapsible=1;marginBottom=0;whiteSpace=wrap;html=1;fillColor=#dae8fc;strokeColor=#6c8ebf;" parent="1" vertex="1">
          <mxGeometry x="-580" y="130" width="140" height="90" as="geometry" />
        </mxCell>
        <mxCell id="PGtcUral3JdQXKYRU7I9-16" value="id: Int" style="text;strokeColor=#d6b656;fillColor=#fff2cc;align=left;verticalAlign=middle;spacingLeft=4;spacingRight=4;overflow=hidden;points=[[0,0.5],[1,0.5]];portConstraint=eastwest;rotatable=0;whiteSpace=wrap;html=1;" parent="PGtcUral3JdQXKYRU7I9-15" vertex="1">
          <mxGeometry y="30" width="140" height="30" as="geometry" />
        </mxCell>
        <mxCell id="PGtcUral3JdQXKYRU7I9-17" value="nombre: String" style="text;strokeColor=none;fillColor=none;align=left;verticalAlign=middle;spacingLeft=4;spacingRight=4;overflow=hidden;points=[[0,0.5],[1,0.5]];portConstraint=eastwest;rotatable=0;whiteSpace=wrap;html=1;" parent="PGtcUral3JdQXKYRU7I9-15" vertex="1">
          <mxGeometry y="60" width="140" height="30" as="geometry" />
        </mxCell>
        <mxCell id="PGtcUral3JdQXKYRU7I9-19" value="Miembro" style="swimlane;fontStyle=0;childLayout=stackLayout;horizontal=1;startSize=30;horizontalStack=0;resizeParent=1;resizeParentMax=0;resizeLast=0;collapsible=1;marginBottom=0;whiteSpace=wrap;html=1;fillColor=#d5e8d4;strokeColor=#82b366;" parent="1" vertex="1">
          <mxGeometry x="-840" y="190" width="140" height="120" as="geometry" />
        </mxCell>
        <mxCell id="PGtcUral3JdQXKYRU7I9-20" value="usuario: Int" style="text;strokeColor=#d6b656;fillColor=#fff2cc;align=left;verticalAlign=middle;spacingLeft=4;spacingRight=4;overflow=hidden;points=[[0,0.5],[1,0.5]];portConstraint=eastwest;rotatable=0;whiteSpace=wrap;html=1;" parent="PGtcUral3JdQXKYRU7I9-19" vertex="1">
          <mxGeometry y="30" width="140" height="30" as="geometry" />
        </mxCell>
        <mxCell id="PGtcUral3JdQXKYRU7I9-21" value="proyecto: Int" style="text;strokeColor=#d6b656;fillColor=#fff2cc;align=left;verticalAlign=middle;spacingLeft=4;spacingRight=4;overflow=hidden;points=[[0,0.5],[1,0.5]];portConstraint=eastwest;rotatable=0;whiteSpace=wrap;html=1;" parent="PGtcUral3JdQXKYRU7I9-19" vertex="1">
          <mxGeometry y="60" width="140" height="30" as="geometry" />
        </mxCell>
        <mxCell id="PGtcUral3JdQXKYRU7I9-22" value="permisos: Enum[String]" style="text;strokeColor=none;fillColor=none;align=left;verticalAlign=middle;spacingLeft=4;spacingRight=4;overflow=hidden;points=[[0,0.5],[1,0.5]];portConstraint=eastwest;rotatable=0;whiteSpace=wrap;html=1;" parent="PGtcUral3JdQXKYRU7I9-19" vertex="1">
          <mxGeometry y="90" width="140" height="30" as="geometry" />
        </mxCell>
        <mxCell id="PGtcUral3JdQXKYRU7I9-24" style="edgeStyle=orthogonalEdgeStyle;rounded=0;orthogonalLoop=1;jettySize=auto;html=1;exitX=0;exitY=0.5;exitDx=0;exitDy=0;entryX=1;entryY=0.5;entryDx=0;entryDy=0;" parent="1" source="PGtcUral3JdQXKYRU7I9-16" target="PGtcUral3JdQXKYRU7I9-20" edge="1">
          <mxGeometry relative="1" as="geometry" />
        </mxCell>
        <mxCell id="PGtcUral3JdQXKYRU7I9-25" style="edgeStyle=orthogonalEdgeStyle;rounded=0;orthogonalLoop=1;jettySize=auto;html=1;exitX=0;exitY=0.5;exitDx=0;exitDy=0;" parent="1" source="PGtcUral3JdQXKYRU7I9-4" target="PGtcUral3JdQXKYRU7I9-21" edge="1">
          <mxGeometry relative="1" as="geometry" />
        </mxCell>
        <mxCell id="PGtcUral3JdQXKYRU7I9-26" value="" style="edgeStyle=orthogonalEdgeStyle;orthogonalLoop=1;jettySize=auto;html=1;rounded=0;dashed=1;endArrow=none;startFill=0;" parent="1" edge="1">
          <mxGeometry width="100" relative="1" as="geometry">
            <mxPoint x="-640" y="270" as="sourcePoint" />
            <mxPoint x="-640" y="230" as="targetPoint" />
          </mxGeometry>
        </mxCell>
        <mxCell id="PGtcUral3JdQXKYRU7I9-28" value="m:n" style="edgeLabel;html=1;align=center;verticalAlign=middle;resizable=0;points=[];" parent="PGtcUral3JdQXKYRU7I9-26" vertex="1" connectable="0">
          <mxGeometry x="-0.0912" y="1" relative="1" as="geometry">
            <mxPoint y="-1" as="offset" />
          </mxGeometry>
        </mxCell>
        <mxCell id="PGtcUral3JdQXKYRU7I9-29" value="Permisos" style="swimlane;fontStyle=0;childLayout=stackLayout;horizontal=1;startSize=30;horizontalStack=0;resizeParent=1;resizeParentMax=0;resizeLast=0;collapsible=1;marginBottom=0;whiteSpace=wrap;html=1;fillColor=#f8cecc;strokeColor=#b85450;" parent="1" vertex="1">
          <mxGeometry x="-1060" y="320" width="140" height="120" as="geometry" />
        </mxCell>
        <mxCell id="PGtcUral3JdQXKYRU7I9-30" value="&amp;gt; Lectura" style="text;strokeColor=none;fillColor=none;align=left;verticalAlign=middle;spacingLeft=4;spacingRight=4;overflow=hidden;points=[[0,0.5],[1,0.5]];portConstraint=eastwest;rotatable=0;whiteSpace=wrap;html=1;" parent="PGtcUral3JdQXKYRU7I9-29" vertex="1">
          <mxGeometry y="30" width="140" height="30" as="geometry" />
        </mxCell>
        <mxCell id="PGtcUral3JdQXKYRU7I9-31" value="&amp;gt; Moderación" style="text;strokeColor=none;fillColor=none;align=left;verticalAlign=middle;spacingLeft=4;spacingRight=4;overflow=hidden;points=[[0,0.5],[1,0.5]];portConstraint=eastwest;rotatable=0;whiteSpace=wrap;html=1;" parent="PGtcUral3JdQXKYRU7I9-29" vertex="1">
          <mxGeometry y="60" width="140" height="30" as="geometry" />
        </mxCell>
        <mxCell id="PGtcUral3JdQXKYRU7I9-32" value="&amp;gt; Escritura" style="text;strokeColor=none;fillColor=none;align=left;verticalAlign=middle;spacingLeft=4;spacingRight=4;overflow=hidden;points=[[0,0.5],[1,0.5]];portConstraint=eastwest;rotatable=0;whiteSpace=wrap;html=1;" parent="PGtcUral3JdQXKYRU7I9-29" vertex="1">
          <mxGeometry y="90" width="140" height="30" as="geometry" />
        </mxCell>
        <mxCell id="PGtcUral3JdQXKYRU7I9-33" style="edgeStyle=orthogonalEdgeStyle;rounded=0;orthogonalLoop=1;jettySize=auto;html=1;exitX=0;exitY=0.5;exitDx=0;exitDy=0;entryX=0.5;entryY=0;entryDx=0;entryDy=0;" parent="1" source="PGtcUral3JdQXKYRU7I9-22" target="PGtcUral3JdQXKYRU7I9-29" edge="1">
          <mxGeometry relative="1" as="geometry" />
        </mxCell>
      </root>
    </mxGraphModel>
  </diagram>
  <diagram id="4InRUc3YfMS6ilGCVPfi" name="Rutas API">
    <mxGraphModel dx="2770" dy="1500" grid="1" gridSize="10" guides="1" tooltips="1" connect="1" arrows="1" fold="1" page="1" pageScale="1" pageWidth="1100" pageHeight="850" math="0" shadow="0">
      <root>
        <mxCell id="0" />
        <mxCell id="1" parent="0" />
        <mxCell id="N9CvwcrNrZVvqI9Vhrfa-21" style="edgeStyle=orthogonalEdgeStyle;rounded=0;orthogonalLoop=1;jettySize=auto;html=1;exitX=1;exitY=0.5;exitDx=0;exitDy=0;entryX=0;entryY=0.5;entryDx=0;entryDy=0;" parent="1" source="N9CvwcrNrZVvqI9Vhrfa-1" target="N9CvwcrNrZVvqI9Vhrfa-19" edge="1">
          <mxGeometry relative="1" as="geometry" />
        </mxCell>
        <mxCell id="N9CvwcrNrZVvqI9Vhrfa-23" style="edgeStyle=orthogonalEdgeStyle;rounded=0;orthogonalLoop=1;jettySize=auto;html=1;exitX=1;exitY=0.5;exitDx=0;exitDy=0;" parent="1" source="N9CvwcrNrZVvqI9Vhrfa-1" target="N9CvwcrNrZVvqI9Vhrfa-22" edge="1">
          <mxGeometry relative="1" as="geometry" />
        </mxCell>
        <mxCell id="N9CvwcrNrZVvqI9Vhrfa-1" value="Usuarios" style="rounded=0;whiteSpace=wrap;html=1;" parent="1" vertex="1">
          <mxGeometry x="40" y="210" width="120" height="60" as="geometry" />
        </mxCell>
        <mxCell id="N9CvwcrNrZVvqI9Vhrfa-41" style="edgeStyle=orthogonalEdgeStyle;rounded=0;orthogonalLoop=1;jettySize=auto;html=1;exitX=1;exitY=0.5;exitDx=0;exitDy=0;entryX=0;entryY=0.5;entryDx=0;entryDy=0;" parent="1" source="N9CvwcrNrZVvqI9Vhrfa-2" target="N9CvwcrNrZVvqI9Vhrfa-30" edge="1">
          <mxGeometry relative="1" as="geometry" />
        </mxCell>
        <mxCell id="N9CvwcrNrZVvqI9Vhrfa-42" style="edgeStyle=orthogonalEdgeStyle;rounded=0;orthogonalLoop=1;jettySize=auto;html=1;exitX=1;exitY=0.5;exitDx=0;exitDy=0;" parent="1" source="N9CvwcrNrZVvqI9Vhrfa-2" target="N9CvwcrNrZVvqI9Vhrfa-26" edge="1">
          <mxGeometry relative="1" as="geometry" />
        </mxCell>
        <mxCell id="N9CvwcrNrZVvqI9Vhrfa-43" style="edgeStyle=orthogonalEdgeStyle;rounded=0;orthogonalLoop=1;jettySize=auto;html=1;exitX=1;exitY=0.5;exitDx=0;exitDy=0;" parent="1" source="N9CvwcrNrZVvqI9Vhrfa-2" target="N9CvwcrNrZVvqI9Vhrfa-27" edge="1">
          <mxGeometry relative="1" as="geometry" />
        </mxCell>
        <mxCell id="N9CvwcrNrZVvqI9Vhrfa-44" style="edgeStyle=orthogonalEdgeStyle;rounded=0;orthogonalLoop=1;jettySize=auto;html=1;exitX=1;exitY=0.5;exitDx=0;exitDy=0;" parent="1" source="N9CvwcrNrZVvqI9Vhrfa-2" target="N9CvwcrNrZVvqI9Vhrfa-28" edge="1">
          <mxGeometry relative="1" as="geometry" />
        </mxCell>
        <mxCell id="N9CvwcrNrZVvqI9Vhrfa-45" style="edgeStyle=orthogonalEdgeStyle;rounded=0;orthogonalLoop=1;jettySize=auto;html=1;exitX=1;exitY=0.5;exitDx=0;exitDy=0;entryX=0;entryY=0.5;entryDx=0;entryDy=0;" parent="1" source="N9CvwcrNrZVvqI9Vhrfa-2" target="N9CvwcrNrZVvqI9Vhrfa-29" edge="1">
          <mxGeometry relative="1" as="geometry" />
        </mxCell>
        <mxCell id="N9CvwcrNrZVvqI9Vhrfa-2" value="Proyectos" style="rounded=0;whiteSpace=wrap;html=1;" parent="1" vertex="1">
          <mxGeometry x="40" y="395" width="120" height="60" as="geometry" />
        </mxCell>
        <mxCell id="N9CvwcrNrZVvqI9Vhrfa-61" style="edgeStyle=orthogonalEdgeStyle;rounded=0;orthogonalLoop=1;jettySize=auto;html=1;exitX=1;exitY=0.5;exitDx=0;exitDy=0;" parent="1" source="N9CvwcrNrZVvqI9Vhrfa-3" target="N9CvwcrNrZVvqI9Vhrfa-51" edge="1">
          <mxGeometry relative="1" as="geometry" />
        </mxCell>
        <mxCell id="N9CvwcrNrZVvqI9Vhrfa-62" style="edgeStyle=orthogonalEdgeStyle;rounded=0;orthogonalLoop=1;jettySize=auto;html=1;exitX=1;exitY=0.5;exitDx=0;exitDy=0;entryX=0;entryY=0.5;entryDx=0;entryDy=0;" parent="1" source="N9CvwcrNrZVvqI9Vhrfa-3" target="N9CvwcrNrZVvqI9Vhrfa-50" edge="1">
          <mxGeometry relative="1" as="geometry" />
        </mxCell>
        <mxCell id="N9CvwcrNrZVvqI9Vhrfa-63" style="edgeStyle=orthogonalEdgeStyle;rounded=0;orthogonalLoop=1;jettySize=auto;html=1;exitX=1;exitY=0.5;exitDx=0;exitDy=0;entryX=0;entryY=0.5;entryDx=0;entryDy=0;" parent="1" source="N9CvwcrNrZVvqI9Vhrfa-3" target="N9CvwcrNrZVvqI9Vhrfa-54" edge="1">
          <mxGeometry relative="1" as="geometry" />
        </mxCell>
        <mxCell id="N9CvwcrNrZVvqI9Vhrfa-64" style="edgeStyle=orthogonalEdgeStyle;rounded=0;orthogonalLoop=1;jettySize=auto;html=1;exitX=1;exitY=0.5;exitDx=0;exitDy=0;entryX=0;entryY=0.5;entryDx=0;entryDy=0;" parent="1" source="N9CvwcrNrZVvqI9Vhrfa-3" target="N9CvwcrNrZVvqI9Vhrfa-52" edge="1">
          <mxGeometry relative="1" as="geometry" />
        </mxCell>
        <mxCell id="N9CvwcrNrZVvqI9Vhrfa-65" style="edgeStyle=orthogonalEdgeStyle;rounded=0;orthogonalLoop=1;jettySize=auto;html=1;exitX=1;exitY=0.5;exitDx=0;exitDy=0;entryX=0;entryY=0.5;entryDx=0;entryDy=0;" parent="1" source="N9CvwcrNrZVvqI9Vhrfa-3" target="N9CvwcrNrZVvqI9Vhrfa-53" edge="1">
          <mxGeometry relative="1" as="geometry" />
        </mxCell>
        <mxCell id="N9CvwcrNrZVvqI9Vhrfa-3" value="Canales" style="rounded=0;whiteSpace=wrap;html=1;" parent="1" vertex="1">
          <mxGeometry x="40" y="660" width="120" height="60" as="geometry" />
        </mxCell>
        <mxCell id="N9CvwcrNrZVvqI9Vhrfa-77" style="edgeStyle=orthogonalEdgeStyle;rounded=0;orthogonalLoop=1;jettySize=auto;html=1;exitX=1;exitY=0.5;exitDx=0;exitDy=0;" parent="1" source="N9CvwcrNrZVvqI9Vhrfa-4" target="N9CvwcrNrZVvqI9Vhrfa-67" edge="1">
          <mxGeometry relative="1" as="geometry" />
        </mxCell>
        <mxCell id="N9CvwcrNrZVvqI9Vhrfa-84" style="edgeStyle=orthogonalEdgeStyle;rounded=0;orthogonalLoop=1;jettySize=auto;html=1;exitX=1;exitY=0.5;exitDx=0;exitDy=0;entryX=0;entryY=0.5;entryDx=0;entryDy=0;" parent="1" source="N9CvwcrNrZVvqI9Vhrfa-4" target="N9CvwcrNrZVvqI9Vhrfa-70" edge="1">
          <mxGeometry relative="1" as="geometry" />
        </mxCell>
        <mxCell id="N9CvwcrNrZVvqI9Vhrfa-85" style="edgeStyle=orthogonalEdgeStyle;rounded=0;orthogonalLoop=1;jettySize=auto;html=1;exitX=1;exitY=0.5;exitDx=0;exitDy=0;entryX=0;entryY=0.5;entryDx=0;entryDy=0;" parent="1" source="N9CvwcrNrZVvqI9Vhrfa-4" target="N9CvwcrNrZVvqI9Vhrfa-66" edge="1">
          <mxGeometry relative="1" as="geometry" />
        </mxCell>
        <mxCell id="N9CvwcrNrZVvqI9Vhrfa-86" style="edgeStyle=orthogonalEdgeStyle;rounded=0;orthogonalLoop=1;jettySize=auto;html=1;exitX=1;exitY=0.5;exitDx=0;exitDy=0;" parent="1" source="N9CvwcrNrZVvqI9Vhrfa-4" target="N9CvwcrNrZVvqI9Vhrfa-68" edge="1">
          <mxGeometry relative="1" as="geometry" />
        </mxCell>
        <mxCell id="N9CvwcrNrZVvqI9Vhrfa-87" style="edgeStyle=orthogonalEdgeStyle;rounded=0;orthogonalLoop=1;jettySize=auto;html=1;exitX=1;exitY=0.5;exitDx=0;exitDy=0;entryX=0;entryY=0.5;entryDx=0;entryDy=0;" parent="1" source="N9CvwcrNrZVvqI9Vhrfa-4" target="N9CvwcrNrZVvqI9Vhrfa-69" edge="1">
          <mxGeometry relative="1" as="geometry" />
        </mxCell>
        <mxCell id="N9CvwcrNrZVvqI9Vhrfa-88" style="edgeStyle=orthogonalEdgeStyle;rounded=0;orthogonalLoop=1;jettySize=auto;html=1;exitX=1;exitY=0.5;exitDx=0;exitDy=0;entryX=0;entryY=0.5;entryDx=0;entryDy=0;" parent="1" source="N9CvwcrNrZVvqI9Vhrfa-4" target="N9CvwcrNrZVvqI9Vhrfa-78" edge="1">
          <mxGeometry relative="1" as="geometry" />
        </mxCell>
        <mxCell id="tTZJrvxKRN9lGGoNsJnN-37" style="edgeStyle=orthogonalEdgeStyle;rounded=0;orthogonalLoop=1;jettySize=auto;html=1;exitX=1;exitY=0.5;exitDx=0;exitDy=0;entryX=0;entryY=0.5;entryDx=0;entryDy=0;" edge="1" parent="1" source="N9CvwcrNrZVvqI9Vhrfa-4" target="N9CvwcrNrZVvqI9Vhrfa-81">
          <mxGeometry relative="1" as="geometry" />
        </mxCell>
        <mxCell id="N9CvwcrNrZVvqI9Vhrfa-4" value="Miembros" style="rounded=0;whiteSpace=wrap;html=1;" parent="1" vertex="1">
          <mxGeometry x="40" y="990" width="120" height="60" as="geometry" />
        </mxCell>
        <mxCell id="N9CvwcrNrZVvqI9Vhrfa-17" style="edgeStyle=orthogonalEdgeStyle;rounded=0;orthogonalLoop=1;jettySize=auto;html=1;exitX=1;exitY=0.5;exitDx=0;exitDy=0;" parent="1" source="N9CvwcrNrZVvqI9Vhrfa-15" target="N9CvwcrNrZVvqI9Vhrfa-16" edge="1">
          <mxGeometry relative="1" as="geometry" />
        </mxCell>
        <mxCell id="N9CvwcrNrZVvqI9Vhrfa-15" value="Pruebas" style="rounded=0;whiteSpace=wrap;html=1;" parent="1" vertex="1">
          <mxGeometry x="40" y="120" width="120" height="60" as="geometry" />
        </mxCell>
        <mxCell id="N9CvwcrNrZVvqI9Vhrfa-16" value="GET" style="ellipse;whiteSpace=wrap;html=1;aspect=fixed;fillColor=#d5e8d4;strokeColor=#82b366;" parent="1" vertex="1">
          <mxGeometry x="200" y="130" width="40" height="40" as="geometry" />
        </mxCell>
        <mxCell id="N9CvwcrNrZVvqI9Vhrfa-18" value="/ping" style="text;html=1;align=left;verticalAlign=middle;resizable=0;points=[];autosize=1;strokeColor=none;fillColor=none;" parent="1" vertex="1">
          <mxGeometry x="260" y="135" width="50" height="30" as="geometry" />
        </mxCell>
        <mxCell id="N9CvwcrNrZVvqI9Vhrfa-19" value="GET" style="ellipse;whiteSpace=wrap;html=1;aspect=fixed;fillColor=#d5e8d4;strokeColor=#82b366;" parent="1" vertex="1">
          <mxGeometry x="200" y="185" width="40" height="40" as="geometry" />
        </mxCell>
        <mxCell id="N9CvwcrNrZVvqI9Vhrfa-20" value="/self" style="text;html=1;align=left;verticalAlign=middle;resizable=0;points=[];autosize=1;strokeColor=none;fillColor=none;" parent="1" vertex="1">
          <mxGeometry x="260" y="190" width="50" height="30" as="geometry" />
        </mxCell>
        <mxCell id="N9CvwcrNrZVvqI9Vhrfa-22" value="GET" style="ellipse;whiteSpace=wrap;html=1;aspect=fixed;fillColor=#d5e8d4;strokeColor=#82b366;" parent="1" vertex="1">
          <mxGeometry x="200" y="250" width="40" height="40" as="geometry" />
        </mxCell>
        <mxCell id="N9CvwcrNrZVvqI9Vhrfa-25" value="/user/&lt;b&gt;{idU}&lt;/b&gt;" style="text;html=1;align=left;verticalAlign=middle;resizable=0;points=[];autosize=1;strokeColor=none;fillColor=none;" parent="1" vertex="1">
          <mxGeometry x="260" y="255" width="80" height="30" as="geometry" />
        </mxCell>
        <mxCell id="N9CvwcrNrZVvqI9Vhrfa-26" value="GET" style="ellipse;whiteSpace=wrap;html=1;aspect=fixed;fillColor=#d5e8d4;strokeColor=#82b366;" parent="1" vertex="1">
          <mxGeometry x="200" y="355" width="40" height="40" as="geometry" />
        </mxCell>
        <mxCell id="N9CvwcrNrZVvqI9Vhrfa-27" value="POST" style="ellipse;whiteSpace=wrap;html=1;aspect=fixed;fillColor=#ffe6cc;strokeColor=#d79b00;" parent="1" vertex="1">
          <mxGeometry x="200" y="405" width="40" height="40" as="geometry" />
        </mxCell>
        <mxCell id="N9CvwcrNrZVvqI9Vhrfa-28" value="PUT" style="ellipse;whiteSpace=wrap;html=1;aspect=fixed;fillColor=#e1d5e7;strokeColor=#9673a6;" parent="1" vertex="1">
          <mxGeometry x="200" y="455" width="40" height="40" as="geometry" />
        </mxCell>
        <mxCell id="N9CvwcrNrZVvqI9Vhrfa-29" value="DELETE" style="ellipse;whiteSpace=wrap;html=1;aspect=fixed;fontSize=9;fillColor=#f8cecc;strokeColor=#b85450;" parent="1" vertex="1">
          <mxGeometry x="200" y="505" width="40" height="40" as="geometry" />
        </mxCell>
        <mxCell id="N9CvwcrNrZVvqI9Vhrfa-30" value="GET" style="ellipse;whiteSpace=wrap;html=1;aspect=fixed;fillColor=#d5e8d4;strokeColor=#82b366;" parent="1" vertex="1">
          <mxGeometry x="200" y="305" width="40" height="40" as="geometry" />
        </mxCell>
        <mxCell id="N9CvwcrNrZVvqI9Vhrfa-31" value="/project" style="text;html=1;align=left;verticalAlign=middle;resizable=0;points=[];autosize=1;strokeColor=none;fillColor=none;" parent="1" vertex="1">
          <mxGeometry x="260" y="310" width="60" height="30" as="geometry" />
        </mxCell>
        <mxCell id="N9CvwcrNrZVvqI9Vhrfa-36" value="/project/&lt;b&gt;{idP}&lt;/b&gt;" style="text;html=1;align=left;verticalAlign=middle;resizable=0;points=[];autosize=1;strokeColor=none;fillColor=none;" parent="1" vertex="1">
          <mxGeometry x="260" y="360" width="90" height="30" as="geometry" />
        </mxCell>
        <mxCell id="N9CvwcrNrZVvqI9Vhrfa-37" value="/project/&lt;b&gt;{idP}&lt;/b&gt;" style="text;html=1;align=left;verticalAlign=middle;resizable=0;points=[];autosize=1;strokeColor=none;fillColor=none;" parent="1" vertex="1">
          <mxGeometry x="260" y="460" width="90" height="30" as="geometry" />
        </mxCell>
        <mxCell id="N9CvwcrNrZVvqI9Vhrfa-38" value="/project" style="text;html=1;align=left;verticalAlign=middle;resizable=0;points=[];autosize=1;strokeColor=none;fillColor=none;" parent="1" vertex="1">
          <mxGeometry x="260" y="410" width="60" height="30" as="geometry" />
        </mxCell>
        <mxCell id="N9CvwcrNrZVvqI9Vhrfa-39" value="/project/&lt;b&gt;{idP}&lt;/b&gt;" style="text;html=1;align=left;verticalAlign=middle;resizable=0;points=[];autosize=1;strokeColor=none;fillColor=none;" parent="1" vertex="1">
          <mxGeometry x="260" y="510" width="90" height="30" as="geometry" />
        </mxCell>
        <mxCell id="N9CvwcrNrZVvqI9Vhrfa-40" value="*" style="text;html=1;align=center;verticalAlign=middle;resizable=0;points=[];autosize=1;fontSize=15;fontStyle=1;fontColor=light-dark(#ff0000, #ededed);" parent="1" vertex="1">
          <mxGeometry x="230" y="445" width="30" height="30" as="geometry" />
        </mxCell>
        <mxCell id="N9CvwcrNrZVvqI9Vhrfa-46" value="*" style="text;html=1;align=center;verticalAlign=middle;resizable=0;points=[];autosize=1;fontSize=15;fontStyle=1;fontColor=light-dark(#ff0000, #ededed);" parent="1" vertex="1">
          <mxGeometry x="230" y="240" width="30" height="30" as="geometry" />
        </mxCell>
        <mxCell id="N9CvwcrNrZVvqI9Vhrfa-47" value="*" style="text;html=1;align=center;verticalAlign=middle;resizable=0;points=[];autosize=1;fontSize=15;fontStyle=1;fontColor=light-dark(#ff0000, #ededed);" parent="1" vertex="1">
          <mxGeometry x="230" y="120" width="30" height="30" as="geometry" />
        </mxCell>
        <mxCell id="N9CvwcrNrZVvqI9Vhrfa-48" value="*" style="text;html=1;align=center;verticalAlign=middle;resizable=0;points=[];autosize=1;fontSize=15;fontStyle=1;fontColor=light-dark(#ff0000, #ededed);" parent="1" vertex="1">
          <mxGeometry x="330" y="10" width="30" height="30" as="geometry" />
        </mxCell>
        <mxCell id="N9CvwcrNrZVvqI9Vhrfa-49" value="- no representada en el frontend" style="text;html=1;align=center;verticalAlign=middle;resizable=0;points=[];autosize=1;strokeColor=none;fillColor=none;" parent="1" vertex="1">
          <mxGeometry x="350" y="10" width="190" height="30" as="geometry" />
        </mxCell>
        <mxCell id="N9CvwcrNrZVvqI9Vhrfa-50" value="GET" style="ellipse;whiteSpace=wrap;html=1;aspect=fixed;fillColor=#d5e8d4;strokeColor=#82b366;" parent="1" vertex="1">
          <mxGeometry x="200" y="620" width="40" height="40" as="geometry" />
        </mxCell>
        <mxCell id="N9CvwcrNrZVvqI9Vhrfa-51" value="POST" style="ellipse;whiteSpace=wrap;html=1;aspect=fixed;fillColor=#ffe6cc;strokeColor=#d79b00;" parent="1" vertex="1">
          <mxGeometry x="200" y="670" width="40" height="40" as="geometry" />
        </mxCell>
        <mxCell id="N9CvwcrNrZVvqI9Vhrfa-52" value="PUT" style="ellipse;whiteSpace=wrap;html=1;aspect=fixed;fillColor=#e1d5e7;strokeColor=#9673a6;" parent="1" vertex="1">
          <mxGeometry x="200" y="720" width="40" height="40" as="geometry" />
        </mxCell>
        <mxCell id="N9CvwcrNrZVvqI9Vhrfa-53" value="DELETE" style="ellipse;whiteSpace=wrap;html=1;aspect=fixed;fontSize=9;fillColor=#f8cecc;strokeColor=#b85450;" parent="1" vertex="1">
          <mxGeometry x="200" y="770" width="40" height="40" as="geometry" />
        </mxCell>
        <mxCell id="N9CvwcrNrZVvqI9Vhrfa-54" value="GET" style="ellipse;whiteSpace=wrap;html=1;aspect=fixed;fillColor=#d5e8d4;strokeColor=#82b366;" parent="1" vertex="1">
          <mxGeometry x="200" y="570" width="40" height="40" as="geometry" />
        </mxCell>
        <mxCell id="N9CvwcrNrZVvqI9Vhrfa-55" value="/project/&lt;b&gt;{idP}&lt;/b&gt;/channel" style="text;html=1;align=left;verticalAlign=middle;resizable=0;points=[];autosize=1;strokeColor=none;fillColor=none;" parent="1" vertex="1">
          <mxGeometry x="260" y="575" width="140" height="30" as="geometry" />
        </mxCell>
        <mxCell id="N9CvwcrNrZVvqI9Vhrfa-56" value="/project/&lt;b&gt;{idP}&lt;/b&gt;/channel/&lt;b&gt;{idC}&lt;/b&gt;&lt;div&gt;/channel/&lt;b&gt;{idP}&lt;/b&gt;/&lt;b&gt;{idC}&lt;/b&gt;&lt;/div&gt;" style="text;html=1;align=left;verticalAlign=middle;resizable=0;points=[];autosize=1;strokeColor=none;fillColor=none;" parent="1" vertex="1">
          <mxGeometry x="260" y="620" width="170" height="40" as="geometry" />
        </mxCell>
        <mxCell id="N9CvwcrNrZVvqI9Vhrfa-57" value="/project/&lt;b&gt;{idP}&lt;/b&gt;/channel/&lt;b&gt;{idC}&lt;/b&gt;&lt;div&gt;/channel/&lt;b&gt;{idP}&lt;/b&gt;/&lt;b&gt;{idC}&lt;/b&gt;&lt;/div&gt;" style="text;html=1;align=left;verticalAlign=middle;resizable=0;points=[];autosize=1;strokeColor=none;fillColor=none;" parent="1" vertex="1">
          <mxGeometry x="260" y="720" width="170" height="40" as="geometry" />
        </mxCell>
        <mxCell id="N9CvwcrNrZVvqI9Vhrfa-58" value="/project/&lt;b&gt;{idP}&lt;/b&gt;/channel" style="text;html=1;align=left;verticalAlign=middle;resizable=0;points=[];autosize=1;strokeColor=none;fillColor=none;" parent="1" vertex="1">
          <mxGeometry x="260" y="675" width="140" height="30" as="geometry" />
        </mxCell>
        <mxCell id="N9CvwcrNrZVvqI9Vhrfa-59" value="/project/&lt;b&gt;{idP}&lt;/b&gt;/channel/&lt;b&gt;{idC}&lt;/b&gt;&lt;div&gt;/channel/&lt;b&gt;{idP}&lt;/b&gt;/&lt;b&gt;{idC}&lt;/b&gt;&lt;/div&gt;" style="text;html=1;align=left;verticalAlign=middle;resizable=0;points=[];autosize=1;strokeColor=none;fillColor=none;" parent="1" vertex="1">
          <mxGeometry x="260" y="770" width="170" height="40" as="geometry" />
        </mxCell>
        <mxCell id="N9CvwcrNrZVvqI9Vhrfa-60" value="*" style="text;html=1;align=center;verticalAlign=middle;resizable=0;points=[];autosize=1;fontSize=15;fontStyle=1;fontColor=light-dark(#ff0000, #ededed);" parent="1" vertex="1">
          <mxGeometry x="230" y="710" width="30" height="30" as="geometry" />
        </mxCell>
        <mxCell id="N9CvwcrNrZVvqI9Vhrfa-66" value="GET" style="ellipse;whiteSpace=wrap;html=1;aspect=fixed;fillColor=#d5e8d4;strokeColor=#82b366;" parent="1" vertex="1">
          <mxGeometry x="200" y="900" width="40" height="40" as="geometry" />
        </mxCell>
        <mxCell id="N9CvwcrNrZVvqI9Vhrfa-67" value="POST" style="ellipse;whiteSpace=wrap;html=1;aspect=fixed;fillColor=#ffe6cc;strokeColor=#d79b00;" parent="1" vertex="1">
          <mxGeometry x="200" y="950" width="40" height="40" as="geometry" />
        </mxCell>
        <mxCell id="N9CvwcrNrZVvqI9Vhrfa-68" value="PUT" style="ellipse;whiteSpace=wrap;html=1;aspect=fixed;fillColor=#e1d5e7;strokeColor=#9673a6;" parent="1" vertex="1">
          <mxGeometry x="200" y="1000" width="40" height="40" as="geometry" />
        </mxCell>
        <mxCell id="N9CvwcrNrZVvqI9Vhrfa-69" value="DELETE" style="ellipse;whiteSpace=wrap;html=1;aspect=fixed;fontSize=9;fillColor=#f8cecc;strokeColor=#b85450;" parent="1" vertex="1">
          <mxGeometry x="200" y="1050" width="40" height="40" as="geometry" />
        </mxCell>
        <mxCell id="N9CvwcrNrZVvqI9Vhrfa-70" value="GET" style="ellipse;whiteSpace=wrap;html=1;aspect=fixed;fillColor=#d5e8d4;strokeColor=#82b366;" parent="1" vertex="1">
          <mxGeometry x="200" y="850" width="40" height="40" as="geometry" />
        </mxCell>
        <mxCell id="N9CvwcrNrZVvqI9Vhrfa-71" value="/project/&lt;b&gt;{idP}&lt;/b&gt;/member" style="text;html=1;align=left;verticalAlign=middle;resizable=0;points=[];autosize=1;strokeColor=none;fillColor=none;" parent="1" vertex="1">
          <mxGeometry x="260" y="855" width="140" height="30" as="geometry" />
        </mxCell>
        <mxCell id="N9CvwcrNrZVvqI9Vhrfa-72" value="/project/&lt;b&gt;{idP}&lt;/b&gt;/member/&lt;b&gt;{idU}&lt;/b&gt;&lt;div&gt;/member/&lt;b&gt;{idP}&lt;/b&gt;/&lt;b&gt;{idU}&lt;/b&gt;&lt;/div&gt;" style="text;html=1;align=left;verticalAlign=middle;resizable=0;points=[];autosize=1;strokeColor=none;fillColor=none;" parent="1" vertex="1">
          <mxGeometry x="260" y="900" width="170" height="40" as="geometry" />
        </mxCell>
        <mxCell id="N9CvwcrNrZVvqI9Vhrfa-73" value="/project/&lt;b&gt;{idP}&lt;/b&gt;/member/&lt;b&gt;{idU}&lt;/b&gt;&lt;div&gt;/member/&lt;b&gt;{idP}&lt;/b&gt;/&lt;b&gt;{idU}&lt;/b&gt;&lt;/div&gt;" style="text;html=1;align=left;verticalAlign=middle;resizable=0;points=[];autosize=1;strokeColor=none;fillColor=none;" parent="1" vertex="1">
          <mxGeometry x="260" y="1000" width="170" height="40" as="geometry" />
        </mxCell>
        <mxCell id="N9CvwcrNrZVvqI9Vhrfa-74" value="/project/&lt;b&gt;{idP}&lt;/b&gt;/member" style="text;html=1;align=left;verticalAlign=middle;resizable=0;points=[];autosize=1;strokeColor=none;fillColor=none;" parent="1" vertex="1">
          <mxGeometry x="260" y="955" width="140" height="30" as="geometry" />
        </mxCell>
        <mxCell id="N9CvwcrNrZVvqI9Vhrfa-75" value="/project/&lt;b&gt;{idP}&lt;/b&gt;/member/&lt;b&gt;{idU}&lt;/b&gt;&lt;div&gt;/member/&lt;b&gt;{idP}&lt;/b&gt;/&lt;b&gt;{idU}&lt;/b&gt;&lt;/div&gt;" style="text;html=1;align=left;verticalAlign=middle;resizable=0;points=[];autosize=1;strokeColor=none;fillColor=none;" parent="1" vertex="1">
          <mxGeometry x="260" y="1050" width="170" height="40" as="geometry" />
        </mxCell>
        <mxCell id="N9CvwcrNrZVvqI9Vhrfa-76" value="*" style="text;html=1;align=center;verticalAlign=middle;resizable=0;points=[];autosize=1;fontSize=15;fontStyle=1;fontColor=light-dark(#ff0000, #ededed);" parent="1" vertex="1">
          <mxGeometry x="230" y="990" width="30" height="30" as="geometry" />
        </mxCell>
        <mxCell id="N9CvwcrNrZVvqI9Vhrfa-78" value="GET" style="ellipse;whiteSpace=wrap;html=1;aspect=fixed;fillColor=#d5e8d4;strokeColor=#82b366;" parent="1" vertex="1">
          <mxGeometry x="200" y="1100" width="40" height="40" as="geometry" />
        </mxCell>
        <mxCell id="N9CvwcrNrZVvqI9Vhrfa-81" value="DELETE" style="ellipse;whiteSpace=wrap;html=1;aspect=fixed;fontSize=9;fillColor=#f8cecc;strokeColor=#b85450;" parent="1" vertex="1">
          <mxGeometry x="200" y="1150" width="40" height="40" as="geometry" />
        </mxCell>
        <mxCell id="N9CvwcrNrZVvqI9Vhrfa-82" value="/project/&lt;b&gt;{idP}&lt;/b&gt;/self" style="text;html=1;align=left;verticalAlign=middle;resizable=0;points=[];autosize=1;strokeColor=none;fillColor=none;" parent="1" vertex="1">
          <mxGeometry x="260" y="1105" width="120" height="30" as="geometry" />
        </mxCell>
        <mxCell id="N9CvwcrNrZVvqI9Vhrfa-83" value="/project/&lt;b&gt;{idP}&lt;/b&gt;/self" style="text;html=1;align=left;verticalAlign=middle;resizable=0;points=[];autosize=1;strokeColor=none;fillColor=none;" parent="1" vertex="1">
          <mxGeometry x="260" y="1155" width="120" height="30" as="geometry" />
        </mxCell>
        <mxCell id="N9CvwcrNrZVvqI9Vhrfa-89" value="&lt;b&gt;idU&lt;/b&gt; - usuario&lt;div&gt;&lt;b&gt;idP&lt;/b&gt; - proyecto&lt;/div&gt;&lt;div&gt;&lt;b&gt;idC &lt;/b&gt;- canal&lt;/div&gt;" style="text;html=1;align=left;verticalAlign=middle;resizable=0;points=[];autosize=1;strokeColor=none;fillColor=none;" parent="1" vertex="1">
          <mxGeometry x="690" y="10" width="100" height="60" as="geometry" />
        </mxCell>
        <mxCell id="N9CvwcrNrZVvqI9Vhrfa-90" value="&lt;font style=&quot;color: rgb(0, 0, 255);&quot; face=&quot;Courier New&quot;&gt;&lt;b&gt;{...}&lt;/b&gt;&lt;/font&gt;" style="text;html=1;align=center;verticalAlign=middle;resizable=0;points=[];autosize=1;strokeColor=none;fillColor=none;fontSize=10;" parent="1" vertex="1">
          <mxGeometry x="330" y="460" width="50" height="30" as="geometry" />
        </mxCell>
        <mxCell id="N9CvwcrNrZVvqI9Vhrfa-91" value="&lt;font style=&quot;color: rgb(0, 0, 255);&quot; face=&quot;Courier New&quot;&gt;&lt;b&gt;{...}&lt;/b&gt;&lt;/font&gt;" style="text;html=1;align=center;verticalAlign=middle;resizable=0;points=[];autosize=1;strokeColor=none;fillColor=none;fontSize=10;" parent="1" vertex="1">
          <mxGeometry x="300" y="410" width="50" height="30" as="geometry" />
        </mxCell>
        <mxCell id="N9CvwcrNrZVvqI9Vhrfa-92" value="&lt;font style=&quot;color: rgb(0, 0, 255);&quot; face=&quot;Courier New&quot;&gt;&lt;b&gt;{...}&lt;/b&gt;&lt;/font&gt;" style="text;html=1;align=center;verticalAlign=middle;resizable=0;points=[];autosize=1;strokeColor=none;fillColor=none;fontSize=10;" parent="1" vertex="1">
          <mxGeometry x="380" y="675" width="50" height="30" as="geometry" />
        </mxCell>
        <mxCell id="N9CvwcrNrZVvqI9Vhrfa-93" value="&lt;font style=&quot;color: rgb(0, 0, 255);&quot; face=&quot;Courier New&quot;&gt;&lt;b&gt;{...}&lt;/b&gt;&lt;/font&gt;" style="text;html=1;align=center;verticalAlign=middle;resizable=0;points=[];autosize=1;strokeColor=none;fillColor=none;fontSize=10;" parent="1" vertex="1">
          <mxGeometry x="410" y="725" width="50" height="30" as="geometry" />
        </mxCell>
        <mxCell id="N9CvwcrNrZVvqI9Vhrfa-94" value="&lt;font style=&quot;color: rgb(0, 0, 255);&quot; face=&quot;Courier New&quot;&gt;&lt;b&gt;{...}&lt;/b&gt;&lt;/font&gt;" style="text;html=1;align=center;verticalAlign=middle;resizable=0;points=[];autosize=1;strokeColor=none;fillColor=none;fontSize=10;" parent="1" vertex="1">
          <mxGeometry x="380" y="955" width="50" height="30" as="geometry" />
        </mxCell>
        <mxCell id="N9CvwcrNrZVvqI9Vhrfa-95" value="&lt;font style=&quot;color: rgb(0, 0, 255);&quot; face=&quot;Courier New&quot;&gt;&lt;b&gt;{...}&lt;/b&gt;&lt;/font&gt;" style="text;html=1;align=center;verticalAlign=middle;resizable=0;points=[];autosize=1;strokeColor=none;fillColor=none;fontSize=10;" parent="1" vertex="1">
          <mxGeometry x="410" y="1005" width="50" height="30" as="geometry" />
        </mxCell>
        <mxCell id="N9CvwcrNrZVvqI9Vhrfa-96" value="&lt;font style=&quot;color: rgb(0, 0, 255);&quot; face=&quot;Courier New&quot;&gt;&lt;b&gt;{...}&lt;/b&gt;&lt;/font&gt;" style="text;html=1;align=center;verticalAlign=middle;resizable=0;points=[];autosize=1;strokeColor=none;fillColor=none;fontSize=10;" parent="1" vertex="1">
          <mxGeometry x="310" y="40" width="50" height="30" as="geometry" />
        </mxCell>
        <mxCell id="N9CvwcrNrZVvqI9Vhrfa-99" value="- requiere un cuerpo de request en formato JSON" style="text;html=1;align=center;verticalAlign=middle;resizable=0;points=[];autosize=1;strokeColor=none;fillColor=none;" parent="1" vertex="1">
          <mxGeometry x="350" y="40" width="290" height="30" as="geometry" />
        </mxCell>
        <mxCell id="N9CvwcrNrZVvqI9Vhrfa-102" value="&lt;font style=&quot;&quot;&gt;200 OK&lt;/font&gt;" style="text;html=1;align=left;verticalAlign=middle;resizable=0;points=[];autosize=1;strokeColor=none;fillColor=none;fontStyle=1;fontColor=light-dark(#0dc700, #ededed);labelPosition=center;verticalLabelPosition=middle;" parent="1" vertex="1">
          <mxGeometry x="910" y="40" width="60" height="30" as="geometry" />
        </mxCell>
        <mxCell id="N9CvwcrNrZVvqI9Vhrfa-103" value="&lt;font style=&quot;&quot;&gt;401 Unauthorized&lt;/font&gt;" style="text;html=1;align=left;verticalAlign=middle;resizable=0;points=[];autosize=1;strokeColor=none;fillColor=none;fontStyle=1;fontColor=light-dark(#ff0000, #ededed);labelPosition=center;verticalLabelPosition=middle;" parent="1" vertex="1">
          <mxGeometry x="910" y="130" width="120" height="30" as="geometry" />
        </mxCell>
        <mxCell id="N9CvwcrNrZVvqI9Vhrfa-104" value="&lt;font style=&quot;&quot;&gt;404 Not Found&lt;/font&gt;" style="text;html=1;align=left;verticalAlign=middle;resizable=0;points=[];autosize=1;strokeColor=none;fillColor=none;fontStyle=1;fontColor=light-dark(#330066,#EDEDED);labelPosition=center;verticalLabelPosition=middle;" parent="1" vertex="1">
          <mxGeometry x="910" y="190" width="100" height="30" as="geometry" />
        </mxCell>
        <mxCell id="N9CvwcrNrZVvqI9Vhrfa-105" value="&lt;font style=&quot;&quot;&gt;400 Bad Request&lt;/font&gt;" style="text;html=1;align=left;verticalAlign=middle;resizable=0;points=[];autosize=1;strokeColor=none;fillColor=none;fontStyle=1;fontColor=light-dark(#ff8400, #e7d1bb);labelPosition=center;verticalLabelPosition=middle;" parent="1" vertex="1">
          <mxGeometry x="910" y="100" width="120" height="30" as="geometry" />
        </mxCell>
        <mxCell id="N9CvwcrNrZVvqI9Vhrfa-106" value="&lt;font style=&quot;&quot;&gt;201 Created&lt;/font&gt;" style="text;html=1;align=left;verticalAlign=middle;resizable=0;points=[];autosize=1;strokeColor=none;fillColor=none;fontStyle=1;fontColor=light-dark(#88B32C,#E7D1BB);labelPosition=center;verticalLabelPosition=middle;" parent="1" vertex="1">
          <mxGeometry x="910" y="70" width="90" height="30" as="geometry" />
        </mxCell>
        <mxCell id="N9CvwcrNrZVvqI9Vhrfa-107" value="&lt;font style=&quot;&quot;&gt;403 Forbidden&lt;/font&gt;" style="text;html=1;align=left;verticalAlign=middle;resizable=0;points=[];autosize=1;strokeColor=none;fillColor=none;fontStyle=1;fontColor=light-dark(#990000,#EDEDED);labelPosition=center;verticalLabelPosition=middle;" parent="1" vertex="1">
          <mxGeometry x="910" y="160" width="100" height="30" as="geometry" />
        </mxCell>
        <mxCell id="N9CvwcrNrZVvqI9Vhrfa-108" value="&lt;font style=&quot;&quot;&gt;409 Conflict&lt;/font&gt;" style="text;html=1;align=left;verticalAlign=middle;resizable=0;points=[];autosize=1;strokeColor=none;fillColor=none;fontStyle=1;fontColor=light-dark(#48c7c5, #EDEDED);labelPosition=center;verticalLabelPosition=middle;" parent="1" vertex="1">
          <mxGeometry x="910" y="220" width="90" height="30" as="geometry" />
        </mxCell>
        <mxCell id="N9CvwcrNrZVvqI9Vhrfa-109" value="" style="ellipse;whiteSpace=wrap;html=1;strokeColor=none;fillColor=#0DC700;" parent="1" vertex="1">
          <mxGeometry x="890" y="50" width="10" height="10" as="geometry" />
        </mxCell>
        <mxCell id="N9CvwcrNrZVvqI9Vhrfa-110" value="" style="ellipse;whiteSpace=wrap;html=1;strokeColor=none;fillColor=light-dark(#88b32c, #009f00);" parent="1" vertex="1">
          <mxGeometry x="890" y="80" width="10" height="10" as="geometry" />
        </mxCell>
        <mxCell id="N9CvwcrNrZVvqI9Vhrfa-111" value="" style="ellipse;whiteSpace=wrap;html=1;strokeColor=none;fillColor=light-dark(#ff8400, #009f00);fontColor=light-dark(#ff8400, #ededed);" parent="1" vertex="1">
          <mxGeometry x="890" y="110" width="10" height="10" as="geometry" />
        </mxCell>
        <mxCell id="N9CvwcrNrZVvqI9Vhrfa-112" value="" style="ellipse;whiteSpace=wrap;html=1;strokeColor=none;fillColor=light-dark(#ff0000, #009f00);fontColor=light-dark(#ff8400, #ededed);" parent="1" vertex="1">
          <mxGeometry x="890" y="140" width="10" height="10" as="geometry" />
        </mxCell>
        <mxCell id="N9CvwcrNrZVvqI9Vhrfa-113" value="" style="ellipse;whiteSpace=wrap;html=1;strokeColor=none;fillColor=light-dark(#990000, #009f00);fontColor=light-dark(#ff8400, #ededed);" parent="1" vertex="1">
          <mxGeometry x="890" y="170" width="10" height="10" as="geometry" />
        </mxCell>
        <mxCell id="N9CvwcrNrZVvqI9Vhrfa-115" value="" style="ellipse;whiteSpace=wrap;html=1;strokeColor=none;fillColor=light-dark(#48c7c5, #009f00);fontColor=light-dark(#ff8400, #ededed);" parent="1" vertex="1">
          <mxGeometry x="890" y="230" width="10" height="10" as="geometry" />
        </mxCell>
        <mxCell id="tTZJrvxKRN9lGGoNsJnN-1" value="" style="ellipse;whiteSpace=wrap;html=1;strokeColor=none;fillColor=#0DC700;" vertex="1" parent="1">
          <mxGeometry x="295" y="145" width="10" height="10" as="geometry" />
        </mxCell>
        <mxCell id="tTZJrvxKRN9lGGoNsJnN-2" value="" style="ellipse;whiteSpace=wrap;html=1;strokeColor=none;fillColor=#0DC700;" vertex="1" parent="1">
          <mxGeometry x="290" y="200" width="10" height="10" as="geometry" />
        </mxCell>
        <mxCell id="tTZJrvxKRN9lGGoNsJnN-5" value="" style="ellipse;whiteSpace=wrap;html=1;strokeColor=none;fillColor=light-dark(#ff0000, #009f00);fontColor=light-dark(#ff8400, #ededed);" vertex="1" parent="1">
          <mxGeometry x="305" y="200" width="10" height="10" as="geometry" />
        </mxCell>
        <mxCell id="tTZJrvxKRN9lGGoNsJnN-6" value="" style="ellipse;whiteSpace=wrap;html=1;strokeColor=none;fillColor=#0DC700;" vertex="1" parent="1">
          <mxGeometry x="330" y="265" width="10" height="10" as="geometry" />
        </mxCell>
        <mxCell id="tTZJrvxKRN9lGGoNsJnN-7" value="" style="ellipse;whiteSpace=wrap;html=1;strokeColor=none;fillColor=light-dark(#ff0000, #009f00);fontColor=light-dark(#ff8400, #ededed);" vertex="1" parent="1">
          <mxGeometry x="345" y="265" width="10" height="10" as="geometry" />
        </mxCell>
        <mxCell id="tTZJrvxKRN9lGGoNsJnN-8" value="Resultados posibles" style="text;html=1;align=center;verticalAlign=middle;resizable=0;points=[];autosize=1;strokeColor=none;fillColor=none;fontStyle=1" vertex="1" parent="1">
          <mxGeometry x="880" y="10" width="130" height="30" as="geometry" />
        </mxCell>
        <mxCell id="tTZJrvxKRN9lGGoNsJnN-9" value="" style="ellipse;whiteSpace=wrap;html=1;strokeColor=none;fillColor=#0DC700;" vertex="1" parent="1">
          <mxGeometry x="310" y="320" width="10" height="10" as="geometry" />
        </mxCell>
        <mxCell id="tTZJrvxKRN9lGGoNsJnN-10" value="" style="ellipse;whiteSpace=wrap;html=1;strokeColor=none;fillColor=light-dark(#ff0000, #009f00);fontColor=light-dark(#ff8400, #ededed);" vertex="1" parent="1">
          <mxGeometry x="325" y="320" width="10" height="10" as="geometry" />
        </mxCell>
        <mxCell id="tTZJrvxKRN9lGGoNsJnN-11" value="" style="ellipse;whiteSpace=wrap;html=1;strokeColor=none;fillColor=light-dark(#330066, #009f00);fontColor=light-dark(#ff8400, #ededed);" vertex="1" parent="1">
          <mxGeometry x="370" y="370" width="10" height="10" as="geometry" />
        </mxCell>
        <mxCell id="tTZJrvxKRN9lGGoNsJnN-12" value="" style="ellipse;whiteSpace=wrap;html=1;strokeColor=none;fillColor=#0DC700;" vertex="1" parent="1">
          <mxGeometry x="340" y="370" width="10" height="10" as="geometry" />
        </mxCell>
        <mxCell id="tTZJrvxKRN9lGGoNsJnN-13" value="" style="ellipse;whiteSpace=wrap;html=1;strokeColor=none;fillColor=light-dark(#ff0000, #009f00);fontColor=light-dark(#ff8400, #ededed);" vertex="1" parent="1">
          <mxGeometry x="355" y="370" width="10" height="10" as="geometry" />
        </mxCell>
        <mxCell id="tTZJrvxKRN9lGGoNsJnN-14" value="" style="ellipse;whiteSpace=wrap;html=1;strokeColor=none;fillColor=light-dark(#330066, #009f00);fontColor=light-dark(#ff8400, #ededed);" vertex="1" parent="1">
          <mxGeometry x="890" y="200" width="10" height="10" as="geometry" />
        </mxCell>
        <mxCell id="tTZJrvxKRN9lGGoNsJnN-15" value="" style="ellipse;whiteSpace=wrap;html=1;strokeColor=none;fillColor=light-dark(#ff8400, #009f00);fontColor=light-dark(#ff8400, #ededed);" vertex="1" parent="1">
          <mxGeometry x="365" y="420" width="10" height="10" as="geometry" />
        </mxCell>
        <mxCell id="tTZJrvxKRN9lGGoNsJnN-16" value="" style="ellipse;whiteSpace=wrap;html=1;strokeColor=none;fillColor=light-dark(#ff0000, #009f00);fontColor=light-dark(#ff8400, #ededed);" vertex="1" parent="1">
          <mxGeometry x="380" y="420" width="10" height="10" as="geometry" />
        </mxCell>
        <mxCell id="tTZJrvxKRN9lGGoNsJnN-18" value="" style="ellipse;whiteSpace=wrap;html=1;strokeColor=none;fillColor=light-dark(#88b32c, #009f00);" vertex="1" parent="1">
          <mxGeometry x="350" y="420" width="10" height="10" as="geometry" />
        </mxCell>
        <mxCell id="tTZJrvxKRN9lGGoNsJnN-19" value="" style="ellipse;whiteSpace=wrap;html=1;strokeColor=none;fillColor=light-dark(#ff8400, #009f00);fontColor=light-dark(#ff8400, #ededed);" vertex="1" parent="1">
          <mxGeometry x="395" y="470" width="10" height="10" as="geometry" />
        </mxCell>
        <mxCell id="tTZJrvxKRN9lGGoNsJnN-20" value="" style="ellipse;whiteSpace=wrap;html=1;strokeColor=none;fillColor=light-dark(#ff0000, #009f00);fontColor=light-dark(#ff8400, #ededed);" vertex="1" parent="1">
          <mxGeometry x="410" y="470" width="10" height="10" as="geometry" />
        </mxCell>
        <mxCell id="tTZJrvxKRN9lGGoNsJnN-22" value="" style="ellipse;whiteSpace=wrap;html=1;strokeColor=none;fillColor=light-dark(#330066, #009f00);fontColor=light-dark(#ff8400, #ededed);" vertex="1" parent="1">
          <mxGeometry x="425" y="470" width="10" height="10" as="geometry" />
        </mxCell>
        <mxCell id="tTZJrvxKRN9lGGoNsJnN-23" value="" style="ellipse;whiteSpace=wrap;html=1;strokeColor=none;fillColor=#0DC700;" vertex="1" parent="1">
          <mxGeometry x="380" y="470" width="10" height="10" as="geometry" />
        </mxCell>
        <mxCell id="tTZJrvxKRN9lGGoNsJnN-24" value="" style="ellipse;whiteSpace=wrap;html=1;strokeColor=none;fillColor=light-dark(#330066, #009f00);fontColor=light-dark(#ff8400, #ededed);" vertex="1" parent="1">
          <mxGeometry x="370" y="520" width="10" height="10" as="geometry" />
        </mxCell>
        <mxCell id="tTZJrvxKRN9lGGoNsJnN-25" value="" style="ellipse;whiteSpace=wrap;html=1;strokeColor=none;fillColor=#0DC700;" vertex="1" parent="1">
          <mxGeometry x="340" y="520" width="10" height="10" as="geometry" />
        </mxCell>
        <mxCell id="tTZJrvxKRN9lGGoNsJnN-26" value="" style="ellipse;whiteSpace=wrap;html=1;strokeColor=none;fillColor=light-dark(#ff0000, #009f00);fontColor=light-dark(#ff8400, #ededed);" vertex="1" parent="1">
          <mxGeometry x="355" y="520" width="10" height="10" as="geometry" />
        </mxCell>
        <mxCell id="tTZJrvxKRN9lGGoNsJnN-27" value="" style="ellipse;whiteSpace=wrap;html=1;strokeColor=none;fillColor=light-dark(#330066, #009f00);fontColor=light-dark(#ff8400, #ededed);" vertex="1" parent="1">
          <mxGeometry x="420" y="585" width="10" height="10" as="geometry" />
        </mxCell>
        <mxCell id="tTZJrvxKRN9lGGoNsJnN-28" value="" style="ellipse;whiteSpace=wrap;html=1;strokeColor=none;fillColor=#0DC700;" vertex="1" parent="1">
          <mxGeometry x="390" y="585" width="10" height="10" as="geometry" />
        </mxCell>
        <mxCell id="tTZJrvxKRN9lGGoNsJnN-29" value="" style="ellipse;whiteSpace=wrap;html=1;strokeColor=none;fillColor=light-dark(#ff0000, #009f00);fontColor=light-dark(#ff8400, #ededed);" vertex="1" parent="1">
          <mxGeometry x="405" y="585" width="10" height="10" as="geometry" />
        </mxCell>
        <mxCell id="tTZJrvxKRN9lGGoNsJnN-30" value="" style="ellipse;whiteSpace=wrap;html=1;strokeColor=none;fillColor=light-dark(#330066, #009f00);fontColor=light-dark(#ff8400, #ededed);" vertex="1" parent="1">
          <mxGeometry x="450" y="635" width="10" height="10" as="geometry" />
        </mxCell>
        <mxCell id="tTZJrvxKRN9lGGoNsJnN-31" value="" style="ellipse;whiteSpace=wrap;html=1;strokeColor=none;fillColor=#0DC700;" vertex="1" parent="1">
          <mxGeometry x="420" y="635" width="10" height="10" as="geometry" />
        </mxCell>
        <mxCell id="tTZJrvxKRN9lGGoNsJnN-32" value="" style="ellipse;whiteSpace=wrap;html=1;strokeColor=none;fillColor=light-dark(#ff0000, #009f00);fontColor=light-dark(#ff8400, #ededed);" vertex="1" parent="1">
          <mxGeometry x="435" y="635" width="10" height="10" as="geometry" />
        </mxCell>
        <mxCell id="tTZJrvxKRN9lGGoNsJnN-33" value="" style="ellipse;whiteSpace=wrap;html=1;strokeColor=none;fillColor=light-dark(#ff8400, #009f00);fontColor=light-dark(#ff8400, #ededed);" vertex="1" parent="1">
          <mxGeometry x="445" y="685" width="10" height="10" as="geometry" />
        </mxCell>
        <mxCell id="tTZJrvxKRN9lGGoNsJnN-34" value="" style="ellipse;whiteSpace=wrap;html=1;strokeColor=none;fillColor=light-dark(#ff0000, #009f00);fontColor=light-dark(#ff8400, #ededed);" vertex="1" parent="1">
          <mxGeometry x="460" y="685" width="10" height="10" as="geometry" />
        </mxCell>
        <mxCell id="tTZJrvxKRN9lGGoNsJnN-35" value="" style="ellipse;whiteSpace=wrap;html=1;strokeColor=none;fillColor=light-dark(#330066, #009f00);fontColor=light-dark(#ff8400, #ededed);" vertex="1" parent="1">
          <mxGeometry x="475" y="685" width="10" height="10" as="geometry" />
        </mxCell>
        <mxCell id="tTZJrvxKRN9lGGoNsJnN-38" value="" style="ellipse;whiteSpace=wrap;html=1;strokeColor=none;fillColor=light-dark(#88b32c, #009f00);" vertex="1" parent="1">
          <mxGeometry x="430" y="685" width="10" height="10" as="geometry" />
        </mxCell>
        <mxCell id="tTZJrvxKRN9lGGoNsJnN-42" value="" style="ellipse;whiteSpace=wrap;html=1;strokeColor=none;fillColor=light-dark(#ff8400, #009f00);fontColor=light-dark(#ff8400, #ededed);" vertex="1" parent="1">
          <mxGeometry x="475" y="735" width="10" height="10" as="geometry" />
        </mxCell>
        <mxCell id="tTZJrvxKRN9lGGoNsJnN-43" value="" style="ellipse;whiteSpace=wrap;html=1;strokeColor=none;fillColor=light-dark(#ff0000, #009f00);fontColor=light-dark(#ff8400, #ededed);" vertex="1" parent="1">
          <mxGeometry x="490" y="735" width="10" height="10" as="geometry" />
        </mxCell>
        <mxCell id="tTZJrvxKRN9lGGoNsJnN-44" value="" style="ellipse;whiteSpace=wrap;html=1;strokeColor=none;fillColor=light-dark(#330066, #009f00);fontColor=light-dark(#ff8400, #ededed);" vertex="1" parent="1">
          <mxGeometry x="505" y="735" width="10" height="10" as="geometry" />
        </mxCell>
        <mxCell id="tTZJrvxKRN9lGGoNsJnN-45" value="" style="ellipse;whiteSpace=wrap;html=1;strokeColor=none;fillColor=#0DC700;" vertex="1" parent="1">
          <mxGeometry x="460" y="735" width="10" height="10" as="geometry" />
        </mxCell>
        <mxCell id="tTZJrvxKRN9lGGoNsJnN-46" value="" style="ellipse;whiteSpace=wrap;html=1;strokeColor=none;fillColor=light-dark(#330066, #009f00);fontColor=light-dark(#ff8400, #ededed);" vertex="1" parent="1">
          <mxGeometry x="450" y="785" width="10" height="10" as="geometry" />
        </mxCell>
        <mxCell id="tTZJrvxKRN9lGGoNsJnN-47" value="" style="ellipse;whiteSpace=wrap;html=1;strokeColor=none;fillColor=#0DC700;" vertex="1" parent="1">
          <mxGeometry x="420" y="785" width="10" height="10" as="geometry" />
        </mxCell>
        <mxCell id="tTZJrvxKRN9lGGoNsJnN-48" value="" style="ellipse;whiteSpace=wrap;html=1;strokeColor=none;fillColor=light-dark(#ff0000, #009f00);fontColor=light-dark(#ff8400, #ededed);" vertex="1" parent="1">
          <mxGeometry x="435" y="785" width="10" height="10" as="geometry" />
        </mxCell>
        <mxCell id="tTZJrvxKRN9lGGoNsJnN-49" value="" style="ellipse;whiteSpace=wrap;html=1;strokeColor=none;fillColor=light-dark(#330066, #009f00);fontColor=light-dark(#ff8400, #ededed);" vertex="1" parent="1">
          <mxGeometry x="420" y="865" width="10" height="10" as="geometry" />
        </mxCell>
        <mxCell id="tTZJrvxKRN9lGGoNsJnN-50" value="" style="ellipse;whiteSpace=wrap;html=1;strokeColor=none;fillColor=#0DC700;" vertex="1" parent="1">
          <mxGeometry x="390" y="865" width="10" height="10" as="geometry" />
        </mxCell>
        <mxCell id="tTZJrvxKRN9lGGoNsJnN-51" value="" style="ellipse;whiteSpace=wrap;html=1;strokeColor=none;fillColor=light-dark(#ff0000, #009f00);fontColor=light-dark(#ff8400, #ededed);" vertex="1" parent="1">
          <mxGeometry x="405" y="865" width="10" height="10" as="geometry" />
        </mxCell>
        <mxCell id="tTZJrvxKRN9lGGoNsJnN-52" value="" style="ellipse;whiteSpace=wrap;html=1;strokeColor=none;fillColor=light-dark(#330066, #009f00);fontColor=light-dark(#ff8400, #ededed);" vertex="1" parent="1">
          <mxGeometry x="450" y="915" width="10" height="10" as="geometry" />
        </mxCell>
        <mxCell id="tTZJrvxKRN9lGGoNsJnN-53" value="" style="ellipse;whiteSpace=wrap;html=1;strokeColor=none;fillColor=#0DC700;" vertex="1" parent="1">
          <mxGeometry x="420" y="915" width="10" height="10" as="geometry" />
        </mxCell>
        <mxCell id="tTZJrvxKRN9lGGoNsJnN-54" value="" style="ellipse;whiteSpace=wrap;html=1;strokeColor=none;fillColor=light-dark(#ff0000, #009f00);fontColor=light-dark(#ff8400, #ededed);" vertex="1" parent="1">
          <mxGeometry x="435" y="915" width="10" height="10" as="geometry" />
        </mxCell>
        <mxCell id="tTZJrvxKRN9lGGoNsJnN-55" value="" style="ellipse;whiteSpace=wrap;html=1;strokeColor=none;fillColor=light-dark(#330066, #009f00);fontColor=light-dark(#ff8400, #ededed);" vertex="1" parent="1">
          <mxGeometry x="400" y="1115" width="10" height="10" as="geometry" />
        </mxCell>
        <mxCell id="tTZJrvxKRN9lGGoNsJnN-56" value="" style="ellipse;whiteSpace=wrap;html=1;strokeColor=none;fillColor=#0DC700;" vertex="1" parent="1">
          <mxGeometry x="370" y="1115" width="10" height="10" as="geometry" />
        </mxCell>
        <mxCell id="tTZJrvxKRN9lGGoNsJnN-57" value="" style="ellipse;whiteSpace=wrap;html=1;strokeColor=none;fillColor=light-dark(#ff0000, #009f00);fontColor=light-dark(#ff8400, #ededed);" vertex="1" parent="1">
          <mxGeometry x="385" y="1115" width="10" height="10" as="geometry" />
        </mxCell>
        <mxCell id="tTZJrvxKRN9lGGoNsJnN-58" value="" style="ellipse;whiteSpace=wrap;html=1;strokeColor=none;fillColor=light-dark(#48c7c5, #009f00);fontColor=light-dark(#ff8400, #ededed);" vertex="1" parent="1">
          <mxGeometry x="490" y="965" width="10" height="10" as="geometry" />
        </mxCell>
        <mxCell id="tTZJrvxKRN9lGGoNsJnN-59" value="" style="ellipse;whiteSpace=wrap;html=1;strokeColor=none;fillColor=light-dark(#ff8400, #009f00);fontColor=light-dark(#ff8400, #ededed);" vertex="1" parent="1">
          <mxGeometry x="445" y="965" width="10" height="10" as="geometry" />
        </mxCell>
        <mxCell id="tTZJrvxKRN9lGGoNsJnN-60" value="" style="ellipse;whiteSpace=wrap;html=1;strokeColor=none;fillColor=light-dark(#ff0000, #009f00);fontColor=light-dark(#ff8400, #ededed);" vertex="1" parent="1">
          <mxGeometry x="460" y="965" width="10" height="10" as="geometry" />
        </mxCell>
        <mxCell id="tTZJrvxKRN9lGGoNsJnN-61" value="" style="ellipse;whiteSpace=wrap;html=1;strokeColor=none;fillColor=light-dark(#330066, #009f00);fontColor=light-dark(#ff8400, #ededed);" vertex="1" parent="1">
          <mxGeometry x="475" y="965" width="10" height="10" as="geometry" />
        </mxCell>
        <mxCell id="tTZJrvxKRN9lGGoNsJnN-62" value="" style="ellipse;whiteSpace=wrap;html=1;strokeColor=none;fillColor=light-dark(#88b32c, #009f00);" vertex="1" parent="1">
          <mxGeometry x="430" y="965" width="10" height="10" as="geometry" />
        </mxCell>
        <mxCell id="tTZJrvxKRN9lGGoNsJnN-64" value="" style="ellipse;whiteSpace=wrap;html=1;strokeColor=none;fillColor=light-dark(#990000, #009f00);fontColor=light-dark(#ff8400, #ededed);" vertex="1" parent="1">
          <mxGeometry x="505" y="1015" width="10" height="10" as="geometry" />
        </mxCell>
        <mxCell id="tTZJrvxKRN9lGGoNsJnN-65" value="" style="ellipse;whiteSpace=wrap;html=1;strokeColor=none;fillColor=light-dark(#ff8400, #009f00);fontColor=light-dark(#ff8400, #ededed);" vertex="1" parent="1">
          <mxGeometry x="475" y="1015" width="10" height="10" as="geometry" />
        </mxCell>
        <mxCell id="tTZJrvxKRN9lGGoNsJnN-66" value="" style="ellipse;whiteSpace=wrap;html=1;strokeColor=none;fillColor=light-dark(#ff0000, #009f00);fontColor=light-dark(#ff8400, #ededed);" vertex="1" parent="1">
          <mxGeometry x="490" y="1015" width="10" height="10" as="geometry" />
        </mxCell>
        <mxCell id="tTZJrvxKRN9lGGoNsJnN-67" value="" style="ellipse;whiteSpace=wrap;html=1;strokeColor=none;fillColor=light-dark(#330066, #009f00);fontColor=light-dark(#ff8400, #ededed);" vertex="1" parent="1">
          <mxGeometry x="520" y="1015" width="10" height="10" as="geometry" />
        </mxCell>
        <mxCell id="tTZJrvxKRN9lGGoNsJnN-68" value="" style="ellipse;whiteSpace=wrap;html=1;strokeColor=none;fillColor=#0DC700;" vertex="1" parent="1">
          <mxGeometry x="460" y="1015" width="10" height="10" as="geometry" />
        </mxCell>
        <mxCell id="nW7z_wwXqfTlMviK6wMO-1" value="" style="ellipse;whiteSpace=wrap;html=1;strokeColor=none;fillColor=light-dark(#330066, #009f00);fontColor=light-dark(#ff8400, #ededed);" vertex="1" parent="1">
          <mxGeometry x="400" y="1165" width="10" height="10" as="geometry" />
        </mxCell>
        <mxCell id="nW7z_wwXqfTlMviK6wMO-2" value="" style="ellipse;whiteSpace=wrap;html=1;strokeColor=none;fillColor=#0DC700;" vertex="1" parent="1">
          <mxGeometry x="370" y="1165" width="10" height="10" as="geometry" />
        </mxCell>
        <mxCell id="nW7z_wwXqfTlMviK6wMO-4" value="" style="ellipse;whiteSpace=wrap;html=1;strokeColor=none;fillColor=light-dark(#990000, #009f00);fontColor=light-dark(#ff8400, #ededed);" vertex="1" parent="1">
          <mxGeometry x="385" y="1165" width="10" height="10" as="geometry" />
        </mxCell>
        <mxCell id="nW7z_wwXqfTlMviK6wMO-6" value="" style="ellipse;whiteSpace=wrap;html=1;strokeColor=none;fillColor=light-dark(#330066, #009f00);fontColor=light-dark(#ff8400, #ededed);" vertex="1" parent="1">
          <mxGeometry x="450" y="1065" width="10" height="10" as="geometry" />
        </mxCell>
        <mxCell id="nW7z_wwXqfTlMviK6wMO-7" value="" style="ellipse;whiteSpace=wrap;html=1;strokeColor=none;fillColor=#0DC700;" vertex="1" parent="1">
          <mxGeometry x="420" y="1065" width="10" height="10" as="geometry" />
        </mxCell>
        <mxCell id="nW7z_wwXqfTlMviK6wMO-8" value="" style="ellipse;whiteSpace=wrap;html=1;strokeColor=none;fillColor=light-dark(#ff0000, #009f00);fontColor=light-dark(#ff8400, #ededed);" vertex="1" parent="1">
          <mxGeometry x="435" y="1065" width="10" height="10" as="geometry" />
        </mxCell>
        <mxCell id="nW7z_wwXqfTlMviK6wMO-10" value="Siempre devuelve &quot;¡Pong!&quot;" style="rounded=0;whiteSpace=wrap;html=1;fontSize=12;" vertex="1" parent="1">
          <mxGeometry x="626.25" y="135" width="195" height="30" as="geometry" />
        </mxCell>
        <mxCell id="nW7z_wwXqfTlMviK6wMO-11" value="Recibir datos del usuario con el que el usuario se ha autenticado" style="rounded=0;whiteSpace=wrap;html=1;fontSize=12;fillColor=#fff2cc;strokeColor=#d6b656;" vertex="1" parent="1">
          <mxGeometry x="600" y="180" width="247.5" height="50" as="geometry" />
        </mxCell>
        <mxCell id="nW7z_wwXqfTlMviK6wMO-16" value="" style="group" vertex="1" connectable="0" parent="1">
          <mxGeometry x="220" y="1220" width="520" height="90" as="geometry" />
        </mxCell>
        <mxCell id="nW7z_wwXqfTlMviK6wMO-14" value="&lt;span style=&quot;text-wrap-mode: nowrap;&quot;&gt;El header Authentication de momento sólo recibe un ID de usuario&lt;/span&gt;&lt;div style=&quot;text-wrap-mode: nowrap;&quot;&gt;Todo lo relacionado con autenticación / contraseñas está fuera del alcance de este proyecto&lt;/div&gt;" style="rounded=0;whiteSpace=wrap;html=1;" vertex="1" parent="nW7z_wwXqfTlMviK6wMO-16">
          <mxGeometry width="520" height="90" as="geometry" />
        </mxCell>
        <mxCell id="nW7z_wwXqfTlMviK6wMO-15" value="" style="shape=image;html=1;verticalAlign=top;verticalLabelPosition=bottom;labelBackgroundColor=#ffffff;imageAspect=0;aspect=fixed;image=https://cdn2.iconfinder.com/data/icons/circle-icons-1/64/caution-128.png" vertex="1" parent="nW7z_wwXqfTlMviK6wMO-16">
          <mxGeometry x="40" y="10" width="29" height="29" as="geometry" />
        </mxCell>
        <mxCell id="nW7z_wwXqfTlMviK6wMO-17" value="" style="edgeStyle=none;orthogonalLoop=1;jettySize=auto;html=1;rounded=0;entryX=0;entryY=0.5;entryDx=0;entryDy=0;" edge="1" parent="1" target="nW7z_wwXqfTlMviK6wMO-11">
          <mxGeometry width="100" relative="1" as="geometry">
            <mxPoint x="330" y="205" as="sourcePoint" />
            <mxPoint x="430" y="214.68" as="targetPoint" />
            <Array as="points" />
          </mxGeometry>
        </mxCell>
        <mxCell id="nW7z_wwXqfTlMviK6wMO-19" value="" style="edgeStyle=none;orthogonalLoop=1;jettySize=auto;html=1;rounded=0;" edge="1" parent="1" target="nW7z_wwXqfTlMviK6wMO-10">
          <mxGeometry width="100" relative="1" as="geometry">
            <mxPoint x="330" y="149.52" as="sourcePoint" />
            <mxPoint x="600" y="149.84" as="targetPoint" />
            <Array as="points" />
          </mxGeometry>
        </mxCell>
        <mxCell id="nW7z_wwXqfTlMviK6wMO-20" value="Recibir datos del usuario especificado" style="rounded=0;whiteSpace=wrap;html=1;fontSize=12;fillColor=#fff2cc;strokeColor=#d6b656;" vertex="1" parent="1">
          <mxGeometry x="600" y="255" width="247.5" height="30" as="geometry" />
        </mxCell>
        <mxCell id="nW7z_wwXqfTlMviK6wMO-23" value="" style="edgeStyle=none;orthogonalLoop=1;jettySize=auto;html=1;rounded=0;entryX=0;entryY=0.5;entryDx=0;entryDy=0;" edge="1" parent="1">
          <mxGeometry width="100" relative="1" as="geometry">
            <mxPoint x="370" y="269.68" as="sourcePoint" />
            <mxPoint x="600" y="270" as="targetPoint" />
            <Array as="points" />
          </mxGeometry>
        </mxCell>
        <mxCell id="nW7z_wwXqfTlMviK6wMO-25" value="" style="edgeStyle=none;orthogonalLoop=1;jettySize=auto;html=1;rounded=0;entryX=0;entryY=0.5;entryDx=0;entryDy=0;" edge="1" parent="1" target="nW7z_wwXqfTlMviK6wMO-26">
          <mxGeometry width="100" relative="1" as="geometry">
            <mxPoint x="350" y="325" as="sourcePoint" />
            <mxPoint x="595" y="325" as="targetPoint" />
            <Array as="points" />
          </mxGeometry>
        </mxCell>
        <mxCell id="nW7z_wwXqfTlMviK6wMO-26" value="Recibir datos de los proyectos de los que es parte" style="rounded=0;whiteSpace=wrap;html=1;fontSize=12;fillColor=#dae8fc;strokeColor=#6c8ebf;" vertex="1" parent="1">
          <mxGeometry x="580" y="310" width="290" height="30" as="geometry" />
        </mxCell>
        <mxCell id="rZCv6EympgoESKC2Ovv0-3" value="" style="edgeStyle=none;orthogonalLoop=1;jettySize=auto;html=1;rounded=0;entryX=0;entryY=0.5;entryDx=0;entryDy=0;" edge="1" parent="1">
          <mxGeometry width="100" relative="1" as="geometry">
            <mxPoint x="390" y="375" as="sourcePoint" />
            <mxPoint x="600" y="375" as="targetPoint" />
            <Array as="points" />
          </mxGeometry>
        </mxCell>
        <mxCell id="rZCv6EympgoESKC2Ovv0-4" value="Recibir datos del proyecto especificado" style="rounded=0;whiteSpace=wrap;html=1;fontSize=12;fillColor=#dae8fc;strokeColor=#6c8ebf;" vertex="1" parent="1">
          <mxGeometry x="600" y="360" width="247.5" height="30" as="geometry" />
        </mxCell>
        <mxCell id="rZCv6EympgoESKC2Ovv0-5" value="" style="edgeStyle=none;orthogonalLoop=1;jettySize=auto;html=1;rounded=0;entryX=0;entryY=0.5;entryDx=0;entryDy=0;" edge="1" parent="1" target="rZCv6EympgoESKC2Ovv0-6">
          <mxGeometry width="100" relative="1" as="geometry">
            <mxPoint x="400" y="425" as="sourcePoint" />
            <mxPoint x="600" y="425" as="targetPoint" />
            <Array as="points" />
          </mxGeometry>
        </mxCell>
        <mxCell id="rZCv6EympgoESKC2Ovv0-6" value="Crear un nuevo proyecto" style="rounded=0;whiteSpace=wrap;html=1;fontSize=12;fillColor=#fff2cc;strokeColor=#d6b656;" vertex="1" parent="1">
          <mxGeometry x="648.75" y="410" width="150" height="30" as="geometry" />
        </mxCell>
        <mxCell id="rZCv6EympgoESKC2Ovv0-11" value="Editar datos del proyecto especificado" style="rounded=0;whiteSpace=wrap;html=1;fontSize=12;fillColor=#d5e8d4;strokeColor=#82b366;" vertex="1" parent="1">
          <mxGeometry x="600" y="460" width="247.5" height="30" as="geometry" />
        </mxCell>
        <mxCell id="rZCv6EympgoESKC2Ovv0-12" value="" style="edgeStyle=none;orthogonalLoop=1;jettySize=auto;html=1;rounded=0;entryX=0;entryY=0.5;entryDx=0;entryDy=0;" edge="1" parent="1">
          <mxGeometry width="100" relative="1" as="geometry">
            <mxPoint x="450" y="475" as="sourcePoint" />
            <mxPoint x="600" y="475" as="targetPoint" />
            <Array as="points" />
          </mxGeometry>
        </mxCell>
        <mxCell id="rZCv6EympgoESKC2Ovv0-13" value="" style="edgeStyle=none;orthogonalLoop=1;jettySize=auto;html=1;rounded=0;entryX=0;entryY=0.5;entryDx=0;entryDy=0;" edge="1" target="rZCv6EympgoESKC2Ovv0-14" parent="1">
          <mxGeometry width="100" relative="1" as="geometry">
            <mxPoint x="390" y="525" as="sourcePoint" />
            <mxPoint x="600" y="525" as="targetPoint" />
            <Array as="points" />
          </mxGeometry>
        </mxCell>
        <mxCell id="rZCv6EympgoESKC2Ovv0-14" value="Eliminar este proyecto" style="rounded=0;whiteSpace=wrap;html=1;fontSize=12;fillColor=#e1d5e7;strokeColor=#9673a6;" vertex="1" parent="1">
          <mxGeometry x="648.75" y="510" width="150" height="30" as="geometry" />
        </mxCell>
        <mxCell id="rZCv6EympgoESKC2Ovv0-16" value="Permisos requeridos" style="swimlane;fontStyle=0;childLayout=stackLayout;horizontal=1;startSize=30;horizontalStack=0;resizeParent=1;resizeParentMax=0;resizeLast=0;collapsible=1;marginBottom=0;whiteSpace=wrap;html=1;" vertex="1" parent="1">
          <mxGeometry x="910" y="300" width="140" height="150" as="geometry" />
        </mxCell>
        <mxCell id="rZCv6EympgoESKC2Ovv0-20" value="Ninguno" style="text;strokeColor=#d6b656;fillColor=#fff2cc;align=left;verticalAlign=middle;spacingLeft=4;spacingRight=4;overflow=hidden;points=[[0,0.5],[1,0.5]];portConstraint=eastwest;rotatable=0;whiteSpace=wrap;html=1;" vertex="1" parent="rZCv6EympgoESKC2Ovv0-16">
          <mxGeometry y="30" width="140" height="30" as="geometry" />
        </mxCell>
        <mxCell id="rZCv6EympgoESKC2Ovv0-17" value="Lectura" style="text;strokeColor=#6c8ebf;fillColor=#dae8fc;align=left;verticalAlign=middle;spacingLeft=4;spacingRight=4;overflow=hidden;points=[[0,0.5],[1,0.5]];portConstraint=eastwest;rotatable=0;whiteSpace=wrap;html=1;" vertex="1" parent="rZCv6EympgoESKC2Ovv0-16">
          <mxGeometry y="60" width="140" height="30" as="geometry" />
        </mxCell>
        <mxCell id="rZCv6EympgoESKC2Ovv0-18" value="Moderación" style="text;strokeColor=#82b366;fillColor=#d5e8d4;align=left;verticalAlign=middle;spacingLeft=4;spacingRight=4;overflow=hidden;points=[[0,0.5],[1,0.5]];portConstraint=eastwest;rotatable=0;whiteSpace=wrap;html=1;" vertex="1" parent="rZCv6EympgoESKC2Ovv0-16">
          <mxGeometry y="90" width="140" height="30" as="geometry" />
        </mxCell>
        <mxCell id="rZCv6EympgoESKC2Ovv0-19" value="Admin" style="text;strokeColor=#9673a6;fillColor=#e1d5e7;align=left;verticalAlign=middle;spacingLeft=4;spacingRight=4;overflow=hidden;points=[[0,0.5],[1,0.5]];portConstraint=eastwest;rotatable=0;whiteSpace=wrap;html=1;" vertex="1" parent="rZCv6EympgoESKC2Ovv0-16">
          <mxGeometry y="120" width="140" height="30" as="geometry" />
        </mxCell>
        <mxCell id="rZCv6EympgoESKC2Ovv0-24" value="Recibir datos de los canales de este proyecto" style="rounded=0;whiteSpace=wrap;html=1;fontSize=12;fillColor=#dae8fc;strokeColor=#6c8ebf;" vertex="1" parent="1">
          <mxGeometry x="580" y="575" width="290" height="30" as="geometry" />
        </mxCell>
        <mxCell id="rZCv6EympgoESKC2Ovv0-25" value="Recibir datos del canal especificado" style="rounded=0;whiteSpace=wrap;html=1;fontSize=12;fillColor=#dae8fc;strokeColor=#6c8ebf;" vertex="1" parent="1">
          <mxGeometry x="600" y="625" width="247.5" height="30" as="geometry" />
        </mxCell>
        <mxCell id="rZCv6EympgoESKC2Ovv0-26" value="" style="edgeStyle=none;orthogonalLoop=1;jettySize=auto;html=1;rounded=0;entryX=0;entryY=0.5;entryDx=0;entryDy=0;" edge="1" target="rZCv6EympgoESKC2Ovv0-24" parent="1">
          <mxGeometry width="100" relative="1" as="geometry">
            <mxPoint x="440" y="590" as="sourcePoint" />
            <mxPoint x="595" y="590" as="targetPoint" />
            <Array as="points" />
          </mxGeometry>
        </mxCell>
        <mxCell id="rZCv6EympgoESKC2Ovv0-27" value="" style="edgeStyle=none;orthogonalLoop=1;jettySize=auto;html=1;rounded=0;entryX=0;entryY=0.5;entryDx=0;entryDy=0;" edge="1" parent="1">
          <mxGeometry width="100" relative="1" as="geometry">
            <mxPoint x="470" y="640" as="sourcePoint" />
            <mxPoint x="600" y="640" as="targetPoint" />
            <Array as="points" />
          </mxGeometry>
        </mxCell>
        <mxCell id="rZCv6EympgoESKC2Ovv0-28" value="" style="edgeStyle=none;orthogonalLoop=1;jettySize=auto;html=1;rounded=0;entryX=0;entryY=0.5;entryDx=0;entryDy=0;" edge="1" target="rZCv6EympgoESKC2Ovv0-29" parent="1">
          <mxGeometry width="100" relative="1" as="geometry">
            <mxPoint x="500" y="690" as="sourcePoint" />
            <mxPoint x="600" y="690" as="targetPoint" />
            <Array as="points" />
          </mxGeometry>
        </mxCell>
        <mxCell id="rZCv6EympgoESKC2Ovv0-29" value="Crear un nuevo canal" style="rounded=0;whiteSpace=wrap;html=1;fontSize=12;fillColor=#d5e8d4;strokeColor=#82b366;" vertex="1" parent="1">
          <mxGeometry x="648.75" y="675" width="150" height="30" as="geometry" />
        </mxCell>
        <mxCell id="rZCv6EympgoESKC2Ovv0-30" value="" style="edgeStyle=none;orthogonalLoop=1;jettySize=auto;html=1;rounded=0;entryX=0;entryY=0.5;entryDx=0;entryDy=0;" edge="1" parent="1">
          <mxGeometry width="100" relative="1" as="geometry">
            <mxPoint x="530" y="740" as="sourcePoint" />
            <mxPoint x="600" y="740" as="targetPoint" />
            <Array as="points" />
          </mxGeometry>
        </mxCell>
        <mxCell id="rZCv6EympgoESKC2Ovv0-31" value="Editar datos del canal especificado" style="rounded=0;whiteSpace=wrap;html=1;fontSize=12;fillColor=#d5e8d4;strokeColor=#82b366;" vertex="1" parent="1">
          <mxGeometry x="600" y="725" width="247.5" height="30" as="geometry" />
        </mxCell>
        <mxCell id="rZCv6EympgoESKC2Ovv0-32" value="" style="edgeStyle=none;orthogonalLoop=1;jettySize=auto;html=1;rounded=0;entryX=0;entryY=0.5;entryDx=0;entryDy=0;" edge="1" target="rZCv6EympgoESKC2Ovv0-33" parent="1">
          <mxGeometry width="100" relative="1" as="geometry">
            <mxPoint x="470" y="790" as="sourcePoint" />
            <mxPoint x="600" y="790" as="targetPoint" />
            <Array as="points" />
          </mxGeometry>
        </mxCell>
        <mxCell id="rZCv6EympgoESKC2Ovv0-33" value="Eliminar este canal" style="rounded=0;whiteSpace=wrap;html=1;fontSize=12;fillColor=#d5e8d4;strokeColor=#82b366;" vertex="1" parent="1">
          <mxGeometry x="648.75" y="775" width="150" height="30" as="geometry" />
        </mxCell>
        <mxCell id="rZCv6EympgoESKC2Ovv0-34" value="" style="edgeStyle=none;orthogonalLoop=1;jettySize=auto;html=1;rounded=0;entryX=0;entryY=0.5;entryDx=0;entryDy=0;" edge="1" target="rZCv6EympgoESKC2Ovv0-36" parent="1">
          <mxGeometry width="100" relative="1" as="geometry">
            <mxPoint x="480" y="1070" as="sourcePoint" />
            <mxPoint x="610" y="1070" as="targetPoint" />
            <Array as="points" />
          </mxGeometry>
        </mxCell>
        <mxCell id="rZCv6EympgoESKC2Ovv0-35" value="" style="edgeStyle=none;orthogonalLoop=1;jettySize=auto;html=1;rounded=0;entryX=0;entryY=0.5;entryDx=0;entryDy=0;" edge="1" parent="1" target="rZCv6EympgoESKC2Ovv0-37">
          <mxGeometry width="100" relative="1" as="geometry">
            <mxPoint x="540" y="1020" as="sourcePoint" />
            <mxPoint x="610" y="1020" as="targetPoint" />
            <Array as="points" />
          </mxGeometry>
        </mxCell>
        <mxCell id="rZCv6EympgoESKC2Ovv0-36" value="Echar a este miembro" style="rounded=0;whiteSpace=wrap;html=1;fontSize=12;fillColor=#e1d5e7;strokeColor=#9673a6;" vertex="1" parent="1">
          <mxGeometry x="648.75" y="1055" width="150" height="30" as="geometry" />
        </mxCell>
        <mxCell id="rZCv6EympgoESKC2Ovv0-37" value="Editar permisos del usuario especificado" style="rounded=0;whiteSpace=wrap;html=1;fontSize=12;fillColor=#e1d5e7;strokeColor=#9673a6;" vertex="1" parent="1">
          <mxGeometry x="601.25" y="1005" width="247.5" height="30" as="geometry" />
        </mxCell>
        <mxCell id="rZCv6EympgoESKC2Ovv0-38" value="Añadir un nuevo miembro" style="rounded=0;whiteSpace=wrap;html=1;fontSize=12;fillColor=#e1d5e7;strokeColor=#9673a6;" vertex="1" parent="1">
          <mxGeometry x="650" y="955" width="150" height="30" as="geometry" />
        </mxCell>
        <mxCell id="rZCv6EympgoESKC2Ovv0-39" value="" style="edgeStyle=none;orthogonalLoop=1;jettySize=auto;html=1;rounded=0;entryX=0;entryY=0.5;entryDx=0;entryDy=0;" edge="1" target="rZCv6EympgoESKC2Ovv0-38" parent="1">
          <mxGeometry width="100" relative="1" as="geometry">
            <mxPoint x="510" y="970" as="sourcePoint" />
            <mxPoint x="610" y="970" as="targetPoint" />
            <Array as="points" />
          </mxGeometry>
        </mxCell>
        <mxCell id="rZCv6EympgoESKC2Ovv0-40" value="" style="edgeStyle=none;orthogonalLoop=1;jettySize=auto;html=1;rounded=0;entryX=0;entryY=0.5;entryDx=0;entryDy=0;" edge="1" parent="1" target="rZCv6EympgoESKC2Ovv0-41">
          <mxGeometry width="100" relative="1" as="geometry">
            <mxPoint x="480" y="920" as="sourcePoint" />
            <mxPoint x="610" y="920" as="targetPoint" />
            <Array as="points" />
          </mxGeometry>
        </mxCell>
        <mxCell id="rZCv6EympgoESKC2Ovv0-41" value="Recibir permisos del miembro especificado" style="rounded=0;whiteSpace=wrap;html=1;fontSize=12;fillColor=#dae8fc;strokeColor=#6c8ebf;" vertex="1" parent="1">
          <mxGeometry x="601.25" y="905" width="247.5" height="30" as="geometry" />
        </mxCell>
        <mxCell id="rZCv6EympgoESKC2Ovv0-42" value="Recibir datos de los usuarios en este proyecto" style="rounded=0;whiteSpace=wrap;html=1;fontSize=12;fillColor=#dae8fc;strokeColor=#6c8ebf;" vertex="1" parent="1">
          <mxGeometry x="578.75" y="855" width="290" height="30" as="geometry" />
        </mxCell>
        <mxCell id="rZCv6EympgoESKC2Ovv0-43" value="" style="edgeStyle=none;orthogonalLoop=1;jettySize=auto;html=1;rounded=0;entryX=0;entryY=0.5;entryDx=0;entryDy=0;" edge="1" target="rZCv6EympgoESKC2Ovv0-42" parent="1">
          <mxGeometry width="100" relative="1" as="geometry">
            <mxPoint x="450" y="870" as="sourcePoint" />
            <mxPoint x="605" y="870" as="targetPoint" />
            <Array as="points" />
          </mxGeometry>
        </mxCell>
        <mxCell id="rZCv6EympgoESKC2Ovv0-45" value="Consultar tus permisos en este proyecto" style="rounded=0;whiteSpace=wrap;html=1;fontSize=12;fillColor=#dae8fc;strokeColor=#6c8ebf;" vertex="1" parent="1">
          <mxGeometry x="573.75" y="1105" width="290" height="30" as="geometry" />
        </mxCell>
        <mxCell id="rZCv6EympgoESKC2Ovv0-46" value="" style="edgeStyle=none;orthogonalLoop=1;jettySize=auto;html=1;rounded=0;entryX=0;entryY=0.5;entryDx=0;entryDy=0;" edge="1" target="rZCv6EympgoESKC2Ovv0-45" parent="1">
          <mxGeometry width="100" relative="1" as="geometry">
            <mxPoint x="420" y="1120" as="sourcePoint" />
            <mxPoint x="600" y="1120" as="targetPoint" />
            <Array as="points" />
          </mxGeometry>
        </mxCell>
        <mxCell id="rZCv6EympgoESKC2Ovv0-47" value="Salir de este proyecto" style="rounded=0;whiteSpace=wrap;html=1;fontSize=12;fillColor=#dae8fc;strokeColor=#6c8ebf;" vertex="1" parent="1">
          <mxGeometry x="648.75" y="1155" width="150" height="30" as="geometry" />
        </mxCell>
        <mxCell id="rZCv6EympgoESKC2Ovv0-48" value="" style="edgeStyle=none;orthogonalLoop=1;jettySize=auto;html=1;rounded=0;entryX=0;entryY=0.5;entryDx=0;entryDy=0;" edge="1" target="rZCv6EympgoESKC2Ovv0-47" parent="1">
          <mxGeometry width="100" relative="1" as="geometry">
            <mxPoint x="420" y="1170" as="sourcePoint" />
            <mxPoint x="608.75" y="1170" as="targetPoint" />
            <Array as="points" />
          </mxGeometry>
        </mxCell>
      </root>
    </mxGraphModel>
  </diagram>
  <diagram id="NqqlVnjp1XQIvszcq3Ru" name="Interacciones frontend">
    <mxGraphModel dx="1629" dy="882" grid="1" gridSize="10" guides="1" tooltips="1" connect="1" arrows="1" fold="1" page="1" pageScale="1" pageWidth="1100" pageHeight="850" math="0" shadow="0">
      <root>
        <mxCell id="0" />
        <mxCell id="1" parent="0" />
        <mxCell id="A5vtb5eL4BbgCqxwnLPK-1" value="login" style="rounded=0;whiteSpace=wrap;html=1;fillColor=#dae8fc;strokeColor=#6c8ebf;" vertex="1" parent="1">
          <mxGeometry x="80" y="160" width="120" height="60" as="geometry" />
        </mxCell>
        <mxCell id="A5vtb5eL4BbgCqxwnLPK-2" value="canales" style="rounded=0;whiteSpace=wrap;html=1;fillColor=#dae8fc;strokeColor=#6c8ebf;" vertex="1" parent="1">
          <mxGeometry x="480" y="160" width="120" height="60" as="geometry" />
        </mxCell>
        <mxCell id="A5vtb5eL4BbgCqxwnLPK-3" value="proyectos" style="rounded=0;whiteSpace=wrap;html=1;fillColor=#dae8fc;strokeColor=#6c8ebf;" vertex="1" parent="1">
          <mxGeometry x="280" y="160" width="120" height="60" as="geometry" />
        </mxCell>
        <mxCell id="A5vtb5eL4BbgCqxwnLPK-4" value="datos_canal &amp;gt; crear_canal" style="rounded=0;whiteSpace=wrap;html=1;fillColor=#dae8fc;strokeColor=#6c8ebf;" vertex="1" parent="1">
          <mxGeometry x="680" y="160" width="120" height="60" as="geometry" />
        </mxCell>
        <mxCell id="A5vtb5eL4BbgCqxwnLPK-6" value="datos_canal &amp;gt;&amp;nbsp;&lt;span style=&quot;white-space: pre; color: light-dark(rgb(0, 0, 0), rgb(255, 255, 255));&quot;&gt;&lt;font&gt;añadir_miembro&lt;/font&gt;&lt;/span&gt;" style="rounded=0;whiteSpace=wrap;html=1;fillColor=#dae8fc;strokeColor=#6c8ebf;" vertex="1" parent="1">
          <mxGeometry x="680" y="400" width="120" height="60" as="geometry" />
        </mxCell>
        <mxCell id="A5vtb5eL4BbgCqxwnLPK-8" style="edgeStyle=orthogonalEdgeStyle;rounded=0;orthogonalLoop=1;jettySize=auto;html=1;exitX=1;exitY=0.5;exitDx=0;exitDy=0;entryX=0;entryY=0.5;entryDx=0;entryDy=0;" edge="1" parent="1" source="A5vtb5eL4BbgCqxwnLPK-7" target="A5vtb5eL4BbgCqxwnLPK-3">
          <mxGeometry relative="1" as="geometry" />
        </mxCell>
        <mxCell id="A5vtb5eL4BbgCqxwnLPK-7" value="Iniciar sesión&lt;br&gt;(elegir ID usuario)" style="rounded=1;whiteSpace=wrap;html=1;" vertex="1" parent="1">
          <mxGeometry x="80" y="240" width="120" height="60" as="geometry" />
        </mxCell>
        <mxCell id="A5vtb5eL4BbgCqxwnLPK-10" style="edgeStyle=orthogonalEdgeStyle;rounded=0;orthogonalLoop=1;jettySize=auto;html=1;exitX=1;exitY=0.5;exitDx=0;exitDy=0;entryX=0;entryY=0.5;entryDx=0;entryDy=0;" edge="1" parent="1" source="A5vtb5eL4BbgCqxwnLPK-9" target="A5vtb5eL4BbgCqxwnLPK-2">
          <mxGeometry relative="1" as="geometry" />
        </mxCell>
        <mxCell id="A5vtb5eL4BbgCqxwnLPK-9" value="Elegir proyecto" style="rounded=1;whiteSpace=wrap;html=1;" vertex="1" parent="1">
          <mxGeometry x="280" y="240" width="120" height="60" as="geometry" />
        </mxCell>
        <mxCell id="A5vtb5eL4BbgCqxwnLPK-11" value="Crear proyecto" style="rounded=1;whiteSpace=wrap;html=1;" vertex="1" parent="1">
          <mxGeometry x="280" y="320" width="120" height="60" as="geometry" />
        </mxCell>
        <mxCell id="A5vtb5eL4BbgCqxwnLPK-12" value="Salir de proyecto" style="rounded=1;whiteSpace=wrap;html=1;" vertex="1" parent="1">
          <mxGeometry x="280" y="400" width="120" height="60" as="geometry" />
        </mxCell>
        <mxCell id="A5vtb5eL4BbgCqxwnLPK-14" style="edgeStyle=orthogonalEdgeStyle;rounded=0;orthogonalLoop=1;jettySize=auto;html=1;exitX=1;exitY=0.5;exitDx=0;exitDy=0;entryX=0;entryY=0.5;entryDx=0;entryDy=0;" edge="1" parent="1" source="A5vtb5eL4BbgCqxwnLPK-13" target="A5vtb5eL4BbgCqxwnLPK-4">
          <mxGeometry relative="1" as="geometry" />
        </mxCell>
        <mxCell id="A5vtb5eL4BbgCqxwnLPK-13" value="Crear canal" style="rounded=1;whiteSpace=wrap;html=1;" vertex="1" parent="1">
          <mxGeometry x="480" y="240" width="120" height="60" as="geometry" />
        </mxCell>
        <mxCell id="A5vtb5eL4BbgCqxwnLPK-19" style="edgeStyle=orthogonalEdgeStyle;rounded=0;orthogonalLoop=1;jettySize=auto;html=1;exitX=0;exitY=0.5;exitDx=0;exitDy=0;" edge="1" parent="1" source="A5vtb5eL4BbgCqxwnLPK-15">
          <mxGeometry relative="1" as="geometry">
            <mxPoint x="660" y="270" as="targetPoint" />
          </mxGeometry>
        </mxCell>
        <mxCell id="A5vtb5eL4BbgCqxwnLPK-15" value="Finalizar creación canal" style="rounded=1;whiteSpace=wrap;html=1;" vertex="1" parent="1">
          <mxGeometry x="680" y="240" width="120" height="60" as="geometry" />
        </mxCell>
        <mxCell id="A5vtb5eL4BbgCqxwnLPK-21" style="edgeStyle=orthogonalEdgeStyle;rounded=0;orthogonalLoop=1;jettySize=auto;html=1;exitX=0;exitY=0.5;exitDx=0;exitDy=0;" edge="1" parent="1" source="A5vtb5eL4BbgCqxwnLPK-17">
          <mxGeometry relative="1" as="geometry">
            <mxPoint x="460" y="670" as="targetPoint" />
          </mxGeometry>
        </mxCell>
        <mxCell id="A5vtb5eL4BbgCqxwnLPK-17" value="Atrás" style="rounded=1;whiteSpace=wrap;html=1;" vertex="1" parent="1">
          <mxGeometry x="480" y="640" width="120" height="60" as="geometry" />
        </mxCell>
        <mxCell id="A5vtb5eL4BbgCqxwnLPK-23" style="edgeStyle=orthogonalEdgeStyle;rounded=0;orthogonalLoop=1;jettySize=auto;html=1;exitX=0;exitY=0.5;exitDx=0;exitDy=0;" edge="1" parent="1" source="A5vtb5eL4BbgCqxwnLPK-22">
          <mxGeometry relative="1" as="geometry">
            <mxPoint x="660" y="510" as="targetPoint" />
          </mxGeometry>
        </mxCell>
        <mxCell id="A5vtb5eL4BbgCqxwnLPK-22" value="Finalizar creación miembro" style="rounded=1;whiteSpace=wrap;html=1;" vertex="1" parent="1">
          <mxGeometry x="680" y="480" width="120" height="60" as="geometry" />
        </mxCell>
        <mxCell id="A5vtb5eL4BbgCqxwnLPK-25" style="edgeStyle=orthogonalEdgeStyle;rounded=0;orthogonalLoop=1;jettySize=auto;html=1;exitX=1;exitY=0.5;exitDx=0;exitDy=0;entryX=0;entryY=0.5;entryDx=0;entryDy=0;" edge="1" parent="1" source="A5vtb5eL4BbgCqxwnLPK-24" target="A5vtb5eL4BbgCqxwnLPK-6">
          <mxGeometry relative="1" as="geometry" />
        </mxCell>
        <mxCell id="A5vtb5eL4BbgCqxwnLPK-24" value="Crear miembro" style="rounded=1;whiteSpace=wrap;html=1;" vertex="1" parent="1">
          <mxGeometry x="480" y="320" width="120" height="60" as="geometry" />
        </mxCell>
        <mxCell id="A5vtb5eL4BbgCqxwnLPK-26" value="Eliminar canal" style="rounded=1;whiteSpace=wrap;html=1;" vertex="1" parent="1">
          <mxGeometry x="480" y="400" width="120" height="60" as="geometry" />
        </mxCell>
        <mxCell id="A5vtb5eL4BbgCqxwnLPK-27" value="Eliminar miembro" style="rounded=1;whiteSpace=wrap;html=1;" vertex="1" parent="1">
          <mxGeometry x="480" y="480" width="120" height="60" as="geometry" />
        </mxCell>
        <mxCell id="A5vtb5eL4BbgCqxwnLPK-30" style="edgeStyle=orthogonalEdgeStyle;rounded=0;orthogonalLoop=1;jettySize=auto;html=1;exitX=0;exitY=0.5;exitDx=0;exitDy=0;" edge="1" parent="1" source="A5vtb5eL4BbgCqxwnLPK-28">
          <mxGeometry relative="1" as="geometry">
            <mxPoint x="460" y="590" as="targetPoint" />
          </mxGeometry>
        </mxCell>
        <mxCell id="A5vtb5eL4BbgCqxwnLPK-28" value="Eliminar proyecto" style="rounded=1;whiteSpace=wrap;html=1;" vertex="1" parent="1">
          <mxGeometry x="480" y="560" width="120" height="60" as="geometry" />
        </mxCell>
      </root>
    </mxGraphModel>
  </diagram>
</mxfile>
